<svg width="412" height="350" viewBox="0 0 412 350" fill="none" xmlns="http://www.w3.org/2000/svg">
<rect width="412" height="350" fill="#222222"/>
<g filter="url(#filter0_d)">
<path d="M108.574 156.73C108.477 157.186 108.265 157.544 107.939 157.805C107.614 158.065 107.256 158.195 106.865 158.195C106.279 158.195 105.807 158.016 105.449 157.658C105.091 157.268 104.912 156.828 104.912 156.34C104.912 155.852 104.961 155.38 105.059 154.924C105.156 154.436 105.205 153.964 105.205 153.508C105.205 151.132 104.473 148.999 103.008 147.111C101.543 145.223 99.4596 143.645 96.7578 142.375C94.0885 141.073 90.8333 140.08 86.9922 139.396C83.151 138.713 78.8704 138.371 74.1504 138.371C70.5371 138.371 66.8913 138.615 63.2129 139.104C59.5671 139.559 56.0514 140.243 52.666 141.154C49.3132 142.033 46.1719 143.156 43.2422 144.523C40.3125 145.858 37.7572 147.421 35.5762 149.211C33.4277 150.969 31.735 152.938 30.498 155.119C29.2611 157.268 28.6426 159.628 28.6426 162.199C28.6426 164.185 29.0658 165.943 29.9121 167.473C30.791 168.97 31.9792 170.288 33.4766 171.428C34.974 172.535 36.7318 173.495 38.75 174.309C40.8008 175.09 43.0143 175.757 45.3906 176.311C47.7669 176.831 50.2409 177.271 52.8125 177.629C55.3841 177.954 57.972 178.231 60.5762 178.459L68.0957 179.094C71.8392 179.419 75.1921 179.761 78.1543 180.119C81.1165 180.477 83.7207 180.933 85.9668 181.486C89.7103 182.43 92.4772 183.781 94.2676 185.539C96.0579 187.297 96.9531 189.641 96.9531 192.57C96.9531 195.402 96.1719 197.893 94.6094 200.041C93.0469 202.189 90.9147 203.996 88.2129 205.461C85.5111 206.926 82.3535 208.033 78.7402 208.781C75.127 209.53 71.2533 209.904 67.1191 209.904C62.627 209.904 58.6719 209.595 55.2539 208.977C51.8685 208.391 49.0202 207.74 46.709 207.023C44.4303 206.275 42.6888 205.591 41.4844 204.973C40.2799 204.354 39.6289 204.012 39.5312 203.947C38.9453 203.622 38.6523 203.101 38.6523 202.385C38.6523 201.831 38.8477 201.392 39.2383 201.066C39.6289 200.708 40.0521 200.529 40.5078 200.529C40.8659 200.529 41.1914 200.627 41.4844 200.822C41.5169 200.822 42.0703 201.115 43.1445 201.701C44.2513 202.255 45.8789 202.873 48.0273 203.557C50.2083 204.24 52.8939 204.859 56.084 205.412C59.2741 205.965 62.985 206.242 67.2168 206.242C71.416 206.242 75.127 205.9 78.3496 205.217C81.5723 204.533 84.2741 203.589 86.4551 202.385C88.6686 201.148 90.3288 199.715 91.4355 198.088C92.5749 196.428 93.1445 194.637 93.1445 192.717C93.1445 191.577 92.9329 190.601 92.5098 189.787C92.1191 188.941 91.5658 188.225 90.8496 187.639C90.1335 187.02 89.2708 186.499 88.2617 186.076C87.2852 185.653 86.2109 185.295 85.0391 185.002C83.8021 184.676 82.4674 184.4 81.0352 184.172C79.6354 183.944 78.1868 183.749 76.6895 183.586C75.1921 183.423 73.6784 183.277 72.1484 183.146C70.651 183.016 69.1699 182.886 67.7051 182.756L60.1855 182.121C54.2611 181.633 49.0853 180.884 44.6582 179.875C40.2637 178.833 36.6016 177.515 33.6719 175.92C30.7422 174.292 28.5449 172.355 27.0801 170.109C25.6152 167.863 24.8828 165.243 24.8828 162.248C24.8828 159.188 25.5664 156.389 26.9336 153.85C28.3333 151.278 30.2214 148.967 32.5977 146.916C35.0065 144.865 37.806 143.091 40.9961 141.594C44.2188 140.064 47.653 138.794 51.2988 137.785C54.9447 136.776 58.7207 136.027 62.627 135.539C66.5332 135.018 70.3743 134.758 74.1504 134.758C78.8704 134.758 82.972 135.051 86.4551 135.637C89.9707 136.19 92.9655 136.923 95.4395 137.834C97.946 138.713 99.9967 139.722 101.592 140.861C103.187 142.001 104.473 143.124 105.449 144.23C107.76 146.932 108.916 150.008 108.916 153.459C108.916 154.598 108.802 155.689 108.574 156.73ZM150.859 159.123C150.859 159.644 150.68 160.067 150.322 160.393C149.964 160.686 149.525 160.832 149.004 160.832H124.248V161.369C124.248 163.355 124.102 165.471 123.809 167.717C123.516 169.963 123.109 172.209 122.588 174.455C122.1 176.669 121.53 178.833 120.879 180.949C120.26 183.065 119.609 185.018 118.926 186.809C118.275 188.599 117.624 190.161 116.973 191.496C116.322 192.798 115.736 193.775 115.215 194.426C115.638 195.923 116.143 197.323 116.729 198.625C117.314 199.895 117.965 201.018 118.682 201.994C119.43 202.938 120.228 203.687 121.074 204.24C121.921 204.794 122.832 205.07 123.809 205.07C124.948 205.07 126.071 204.598 127.178 203.654C128.317 202.678 129.359 201.538 130.303 200.236C131.279 198.902 132.126 197.567 132.842 196.232C133.59 194.865 134.128 193.775 134.453 192.961C134.779 192.18 135.348 191.789 136.162 191.789C136.715 191.789 137.155 191.984 137.48 192.375C137.839 192.766 138.018 193.189 138.018 193.645C138.018 193.872 137.969 194.1 137.871 194.328C137.773 194.556 137.529 195.077 137.139 195.891C136.781 196.704 136.292 197.648 135.674 198.723C135.088 199.797 134.388 200.936 133.574 202.141C132.793 203.312 131.898 204.387 130.889 205.363C129.912 206.34 128.854 207.154 127.715 207.805C126.576 208.456 125.371 208.781 124.102 208.781C121.855 208.781 119.837 208.049 118.047 206.584C116.257 205.119 114.727 203.068 113.457 200.432C112.22 197.795 111.276 194.67 110.625 191.057C109.974 187.443 109.648 183.488 109.648 179.191C109.648 178.117 109.665 176.864 109.697 175.432C109.73 173.967 109.795 172.437 109.893 170.842C109.99 169.214 110.137 167.554 110.332 165.861C110.527 164.136 110.788 162.46 111.113 160.832H93.584C93.0632 160.832 92.6237 160.686 92.2656 160.393C91.9076 160.067 91.7285 159.644 91.7285 159.123C91.7285 158.602 91.9076 158.195 92.2656 157.902C92.6237 157.577 93.0632 157.414 93.584 157.414H111.943C112.269 156.242 112.643 155.168 113.066 154.191C113.522 153.215 114.027 152.368 114.58 151.652C115.166 150.936 115.801 150.383 116.484 149.992C117.201 149.569 117.982 149.357 118.828 149.357C119.642 149.357 120.342 149.569 120.928 149.992C121.546 150.383 122.067 150.936 122.49 151.652C122.913 152.368 123.239 153.215 123.467 154.191C123.727 155.168 123.923 156.242 124.053 157.414H149.004C149.525 157.414 149.964 157.577 150.322 157.902C150.68 158.195 150.859 158.602 150.859 159.123ZM114.092 189.543C115.068 187.395 115.947 185.083 116.729 182.609C117.542 180.103 118.226 177.58 118.779 175.041C119.365 172.502 119.805 170.012 120.098 167.57C120.423 165.129 120.586 162.883 120.586 160.832H114.824C114.368 162.85 113.994 165.357 113.701 168.352C113.441 171.314 113.311 174.927 113.311 179.191C113.311 181.568 113.376 183.57 113.506 185.197C113.636 186.792 113.831 188.241 114.092 189.543ZM118.633 153.02C118.34 153.02 117.917 153.345 117.363 153.996C116.81 154.615 116.257 155.754 115.703 157.414H120.391C120.228 156.047 119.984 154.973 119.658 154.191C119.365 153.41 119.023 153.02 118.633 153.02ZM114.873 193.059V193.107V193.059ZM172.393 194.377C172.262 194.637 171.986 195.191 171.562 196.037C171.172 196.851 170.651 197.795 170 198.869C169.382 199.943 168.649 201.066 167.803 202.238C166.956 203.41 166.012 204.484 164.971 205.461C163.929 206.438 162.806 207.251 161.602 207.902C160.397 208.521 159.128 208.83 157.793 208.83C155.905 208.83 154.31 208.228 153.008 207.023C151.738 205.819 150.811 204.305 150.225 202.482C149.118 204.338 147.799 205.819 146.27 206.926C144.74 208 143.21 208.537 141.68 208.537C140.475 208.537 139.385 208.326 138.408 207.902C137.432 207.447 136.602 206.828 135.918 206.047C135.234 205.233 134.697 204.289 134.307 203.215C133.949 202.141 133.77 200.969 133.77 199.699C133.77 197.16 134.193 194.93 135.039 193.01C135.918 191.057 137.025 189.429 138.359 188.127C139.694 186.825 141.159 185.848 142.754 185.197C144.382 184.546 145.944 184.221 147.441 184.221C148.451 184.221 149.378 184.367 150.225 184.66C151.071 184.921 151.787 185.214 152.373 185.539C152.992 185.865 153.464 186.174 153.789 186.467C154.115 186.727 154.294 186.874 154.326 186.906C154.684 187.329 154.863 187.769 154.863 188.225C154.863 188.713 154.684 189.152 154.326 189.543C153.968 189.901 153.545 190.08 153.057 190.08C152.536 190.08 152.096 189.901 151.738 189.543C151.673 189.478 151.527 189.364 151.299 189.201C151.071 189.006 150.762 188.811 150.371 188.615C149.98 188.42 149.508 188.257 148.955 188.127C148.434 187.964 147.832 187.883 147.148 187.883C146.139 187.883 145.065 188.111 143.926 188.566C142.786 189.022 141.745 189.738 140.801 190.715C139.857 191.659 139.059 192.863 138.408 194.328C137.79 195.76 137.48 197.469 137.48 199.455C137.48 200.074 137.546 200.708 137.676 201.359C137.806 201.978 138.034 202.548 138.359 203.068C138.685 203.589 139.124 204.012 139.678 204.338C140.231 204.663 140.915 204.826 141.729 204.826C142.314 204.826 142.982 204.631 143.73 204.24C144.512 203.85 145.244 203.247 145.928 202.434C146.644 201.62 147.279 200.594 147.832 199.357C148.418 198.12 148.825 196.656 149.053 194.963C149.118 194.507 149.329 194.133 149.688 193.84C150.046 193.514 150.469 193.352 150.957 193.352C151.413 193.352 151.803 193.531 152.129 193.889C152.487 194.247 152.682 194.654 152.715 195.109C152.747 195.728 152.812 196.607 152.91 197.746C153.008 198.853 153.219 199.96 153.545 201.066C153.903 202.173 154.424 203.133 155.107 203.947C155.791 204.761 156.735 205.168 157.939 205.168C158.721 205.168 159.486 204.956 160.234 204.533C161.016 204.11 161.764 203.557 162.48 202.873C163.229 202.157 163.929 201.359 164.58 200.48C165.264 199.569 165.882 198.658 166.436 197.746C166.989 196.835 167.477 195.956 167.9 195.109C168.324 194.263 168.682 193.531 168.975 192.912C169.137 192.554 169.365 192.277 169.658 192.082C169.984 191.887 170.326 191.789 170.684 191.789C171.237 191.789 171.676 192.001 172.002 192.424C172.36 192.814 172.539 193.238 172.539 193.693C172.539 193.921 172.49 194.149 172.393 194.377ZM186.699 212.785C192.819 204.81 197.067 198.186 199.443 192.912C199.606 192.554 199.818 192.294 200.078 192.131C200.371 191.936 200.697 191.838 201.055 191.838C201.608 191.838 202.064 192.033 202.422 192.424C202.78 192.782 202.959 193.205 202.959 193.693C202.959 193.921 202.91 194.149 202.812 194.377C201.38 197.632 199.346 201.262 196.709 205.266C194.072 209.27 190.736 213.794 186.699 218.84C186.699 220.891 186.715 222.941 186.748 224.992C186.781 227.043 186.797 229.289 186.797 231.73C186.797 234.172 186.732 236.581 186.602 238.957C186.504 241.366 186.309 243.645 186.016 245.793C185.723 247.974 185.316 249.976 184.795 251.799C184.307 253.654 183.656 255.249 182.842 256.584C182.061 257.951 181.1 259.009 179.961 259.758C178.854 260.539 177.536 260.93 176.006 260.93C173.825 260.93 172.148 260.1 170.977 258.439C169.805 256.779 169.219 254.419 169.219 251.359C169.219 249.732 169.365 247.958 169.658 246.037C169.984 244.149 170.439 242.196 171.025 240.178C171.611 238.16 172.311 236.109 173.125 234.025C173.971 231.975 174.899 229.973 175.908 228.02C176.917 226.066 178.008 224.195 179.18 222.404C180.384 220.614 181.654 218.986 182.988 217.521C183.021 215.243 183.037 212.98 183.037 210.734C183.07 208.488 183.118 206.421 183.184 204.533C182.207 205.77 181.035 206.747 179.668 207.463C178.333 208.179 176.999 208.537 175.664 208.537C174.525 208.537 173.483 208.326 172.539 207.902C171.628 207.447 170.846 206.828 170.195 206.047C169.544 205.233 169.04 204.289 168.682 203.215C168.324 202.141 168.145 200.969 168.145 199.699C168.145 197.16 168.568 194.93 169.414 193.01C170.293 191.057 171.4 189.429 172.734 188.127C174.069 186.825 175.534 185.848 177.129 185.197C178.757 184.546 180.319 184.221 181.816 184.221C182.826 184.221 183.753 184.351 184.6 184.611C185.446 184.872 186.162 185.165 186.748 185.49C187.367 185.816 187.839 186.125 188.164 186.418C188.49 186.711 188.669 186.874 188.701 186.906C189.059 187.297 189.238 187.736 189.238 188.225C189.238 188.713 189.059 189.152 188.701 189.543C188.343 189.901 187.92 190.08 187.432 190.08C186.976 190.08 186.536 189.901 186.113 189.543C185.983 189.445 185.804 189.315 185.576 189.152C185.381 188.957 185.104 188.762 184.746 188.566C184.421 188.371 184.014 188.208 183.525 188.078C183.07 187.948 182.516 187.883 181.865 187.883C180.889 187.883 179.814 188.111 178.643 188.566C177.471 188.99 176.38 189.673 175.371 190.617C174.362 191.561 173.516 192.782 172.832 194.279C172.148 195.744 171.807 197.518 171.807 199.602C171.807 201.164 172.148 202.434 172.832 203.41C173.516 204.354 174.574 204.826 176.006 204.826C176.689 204.826 177.406 204.631 178.154 204.24C178.936 203.85 179.684 203.247 180.4 202.434C181.117 201.62 181.735 200.594 182.256 199.357C182.809 198.12 183.2 196.656 183.428 194.963C183.493 194.507 183.704 194.133 184.062 193.84C184.421 193.514 184.844 193.352 185.332 193.352C185.885 193.352 186.309 193.547 186.602 193.938C186.927 194.328 187.09 194.768 187.09 195.256C187.09 195.288 187.074 195.793 187.041 196.77C187.008 197.714 186.976 198.983 186.943 200.578C186.911 202.173 186.862 204.029 186.797 206.145C186.764 208.228 186.732 210.441 186.699 212.785ZM182.988 223.479C181.458 225.594 180.075 227.889 178.838 230.363C177.601 232.87 176.543 235.393 175.664 237.932C174.785 240.471 174.102 242.928 173.613 245.305C173.158 247.714 172.93 249.862 172.93 251.75C172.93 252.954 173.027 253.915 173.223 254.631C173.451 255.347 173.711 255.9 174.004 256.291C174.329 256.682 174.671 256.942 175.029 257.072C175.42 257.202 175.778 257.268 176.104 257.268C177.113 257.268 177.992 256.861 178.74 256.047C179.489 255.233 180.124 254.143 180.645 252.775C181.165 251.441 181.589 249.895 181.914 248.137C182.24 246.379 182.484 244.556 182.646 242.668C182.809 240.812 182.923 238.957 182.988 237.102C183.053 235.246 183.086 233.537 183.086 231.975C183.086 230.575 183.086 229.175 183.086 227.775C183.086 226.376 183.053 224.943 182.988 223.479ZM205.352 202.629C206.035 203.573 206.914 204.338 207.988 204.924C209.062 205.477 210.381 205.754 211.943 205.754C213.538 205.754 214.987 205.38 216.289 204.631C217.591 203.85 218.779 202.84 219.854 201.604C220.928 200.367 221.888 198.983 222.734 197.453C223.581 195.923 224.346 194.393 225.029 192.863C225.192 192.505 225.42 192.245 225.713 192.082C226.006 191.887 226.331 191.789 226.689 191.789C227.243 191.789 227.682 191.984 228.008 192.375C228.366 192.766 228.545 193.189 228.545 193.645C228.545 193.807 228.529 193.954 228.496 194.084C228.464 194.182 228.415 194.296 228.35 194.426C226.104 199.374 223.646 203.101 220.977 205.607C218.34 208.114 215.345 209.4 211.992 209.465C209.844 209.465 207.988 209.042 206.426 208.195C204.863 207.382 203.577 206.324 202.568 205.021C201.559 203.687 200.811 202.189 200.322 200.529C199.834 198.869 199.59 197.209 199.59 195.549C199.59 193.889 199.785 192.359 200.176 190.959C200.599 189.559 201.185 188.339 201.934 187.297C202.715 186.255 203.626 185.441 204.668 184.855C205.742 184.27 206.914 183.977 208.184 183.977C208.932 183.977 209.665 184.139 210.381 184.465C211.13 184.758 211.797 185.197 212.383 185.783C212.969 186.337 213.441 187.02 213.799 187.834C214.157 188.648 214.336 189.576 214.336 190.617C214.336 191.952 214.108 193.205 213.652 194.377C213.197 195.549 212.562 196.639 211.748 197.648C210.967 198.658 210.023 199.585 208.916 200.432C207.809 201.278 206.621 202.01 205.352 202.629ZM203.887 199.455C204.896 199.032 205.807 198.495 206.621 197.844C207.467 197.193 208.184 196.477 208.77 195.695C209.355 194.914 209.811 194.1 210.137 193.254C210.462 192.375 210.625 191.496 210.625 190.617C210.625 189.641 210.381 188.908 209.893 188.42C209.404 187.899 208.835 187.639 208.184 187.639C207.305 187.639 206.556 187.883 205.938 188.371C205.319 188.859 204.814 189.494 204.424 190.275C204.033 191.057 203.74 191.936 203.545 192.912C203.382 193.856 203.301 194.8 203.301 195.744C203.301 196.33 203.35 196.949 203.447 197.6C203.577 198.251 203.724 198.869 203.887 199.455ZM228.936 203.85C229.456 202.743 230.059 201.555 230.742 200.285C231.426 198.983 232.158 197.665 232.939 196.33C233.721 194.963 234.551 193.612 235.43 192.277C236.309 190.943 237.22 189.689 238.164 188.518C239.108 187.378 240.052 186.564 240.996 186.076C241.973 185.555 242.884 185.295 243.73 185.295C244.577 185.295 245.309 185.474 245.928 185.832C246.579 186.158 247.1 186.613 247.49 187.199C247.913 187.785 248.223 188.469 248.418 189.25C248.646 190.031 248.76 190.878 248.76 191.789C248.76 192.538 248.678 193.547 248.516 194.816C248.385 196.053 248.32 197.355 248.32 198.723C248.32 199.504 248.353 200.285 248.418 201.066C248.516 201.815 248.662 202.499 248.857 203.117C249.085 203.703 249.411 204.191 249.834 204.582C250.257 204.94 250.811 205.119 251.494 205.119C252.275 205.119 253.057 204.908 253.838 204.484C254.619 204.029 255.384 203.443 256.133 202.727C256.882 201.978 257.598 201.164 258.281 200.285C258.965 199.374 259.583 198.479 260.137 197.6C260.69 196.688 261.178 195.826 261.602 195.012C262.025 194.165 262.367 193.465 262.627 192.912C262.952 192.163 263.522 191.789 264.336 191.789C264.889 191.789 265.329 191.984 265.654 192.375C265.98 192.766 266.143 193.189 266.143 193.645C266.143 193.905 266.094 194.149 265.996 194.377C265.866 194.637 265.605 195.174 265.215 195.988C264.857 196.802 264.352 197.746 263.701 198.82C263.083 199.895 262.35 201.018 261.504 202.189C260.658 203.361 259.714 204.452 258.672 205.461C257.663 206.438 256.556 207.251 255.352 207.902C254.18 208.521 252.943 208.83 251.641 208.83C250.143 208.83 248.939 208.521 248.027 207.902C247.116 207.251 246.4 206.438 245.879 205.461C245.391 204.484 245.049 203.394 244.854 202.189C244.691 200.985 244.609 199.813 244.609 198.674C244.609 198.088 244.626 197.469 244.658 196.818C244.723 196.135 244.788 195.467 244.854 194.816C244.919 194.165 244.967 193.563 245 193.01C245.065 192.424 245.098 191.936 245.098 191.545C245.098 190.536 244.951 189.852 244.658 189.494C244.398 189.136 244.089 188.957 243.73 188.957C243.21 188.957 242.607 189.266 241.924 189.885C241.273 190.471 240.573 191.252 239.824 192.229C239.108 193.205 238.376 194.312 237.627 195.549C236.911 196.753 236.211 197.958 235.527 199.162C234.844 200.367 234.225 201.522 233.672 202.629C233.118 203.703 232.663 204.598 232.305 205.314C231.621 206.682 230.921 207.593 230.205 208.049C229.521 208.537 228.903 208.781 228.35 208.781C227.34 208.781 226.559 208.391 226.006 207.609C225.485 206.796 225.225 205.819 225.225 204.68V201.604C225.225 195.451 225.225 189.592 225.225 184.025C225.257 178.426 225.339 173.234 225.469 168.449C225.632 163.632 225.876 159.286 226.201 155.412C226.559 151.506 227.08 148.186 227.764 145.451C228.447 142.684 229.31 140.552 230.352 139.055C231.426 137.557 232.76 136.809 234.355 136.809C235.723 136.809 236.878 137.183 237.822 137.932C238.766 138.68 239.531 139.706 240.117 141.008C240.703 142.277 241.126 143.775 241.387 145.5C241.647 147.193 241.777 148.983 241.777 150.871C241.777 154.712 241.419 158.488 240.703 162.199C240.02 165.878 239.092 169.475 237.92 172.99C236.748 176.506 235.381 179.94 233.818 183.293C232.256 186.613 230.612 189.852 228.887 193.01C228.887 193.596 228.887 194.296 228.887 195.109C228.887 195.923 228.887 196.737 228.887 197.551C228.887 198.365 228.887 199.13 228.887 199.846C228.887 200.562 228.887 201.132 228.887 201.555L228.936 203.85ZM228.936 185.832C230.303 182.837 231.54 179.924 232.646 177.092C233.786 174.227 234.746 171.379 235.527 168.547C236.341 165.715 236.976 162.85 237.432 159.953C237.887 157.023 238.115 153.98 238.115 150.822C238.115 150.301 238.083 149.471 238.018 148.332C237.985 147.193 237.839 146.037 237.578 144.865C237.35 143.693 236.976 142.668 236.455 141.789C235.967 140.91 235.267 140.471 234.355 140.471C233.639 140.471 233.021 140.959 232.5 141.936C231.979 142.88 231.523 144.182 231.133 145.842C230.742 147.469 230.417 149.374 230.156 151.555C229.896 153.736 229.684 156.047 229.521 158.488C229.359 160.93 229.229 163.436 229.131 166.008C229.066 168.579 229.017 171.086 228.984 173.527C228.952 175.936 228.936 178.199 228.936 180.314C228.936 182.43 228.936 184.27 228.936 185.832ZM300.42 194.377C300.29 194.637 300.013 195.191 299.59 196.037C299.199 196.851 298.678 197.795 298.027 198.869C297.409 199.943 296.676 201.066 295.83 202.238C294.984 203.41 294.04 204.484 292.998 205.461C291.956 206.438 290.833 207.251 289.629 207.902C288.424 208.521 287.155 208.83 285.82 208.83C283.932 208.83 282.337 208.228 281.035 207.023C279.766 205.819 278.838 204.305 278.252 202.482C277.145 204.338 275.827 205.819 274.297 206.926C272.767 208 271.237 208.537 269.707 208.537C268.503 208.537 267.412 208.326 266.436 207.902C265.459 207.447 264.629 206.828 263.945 206.047C263.262 205.233 262.725 204.289 262.334 203.215C261.976 202.141 261.797 200.969 261.797 199.699C261.797 197.16 262.22 194.93 263.066 193.01C263.945 191.057 265.052 189.429 266.387 188.127C267.721 186.825 269.186 185.848 270.781 185.197C272.409 184.546 273.971 184.221 275.469 184.221C276.478 184.221 277.406 184.367 278.252 184.66C279.098 184.921 279.814 185.214 280.4 185.539C281.019 185.865 281.491 186.174 281.816 186.467C282.142 186.727 282.321 186.874 282.354 186.906C282.712 187.329 282.891 187.769 282.891 188.225C282.891 188.713 282.712 189.152 282.354 189.543C281.995 189.901 281.572 190.08 281.084 190.08C280.563 190.08 280.124 189.901 279.766 189.543C279.701 189.478 279.554 189.364 279.326 189.201C279.098 189.006 278.789 188.811 278.398 188.615C278.008 188.42 277.536 188.257 276.982 188.127C276.462 187.964 275.859 187.883 275.176 187.883C274.167 187.883 273.092 188.111 271.953 188.566C270.814 189.022 269.772 189.738 268.828 190.715C267.884 191.659 267.087 192.863 266.436 194.328C265.817 195.76 265.508 197.469 265.508 199.455C265.508 200.074 265.573 200.708 265.703 201.359C265.833 201.978 266.061 202.548 266.387 203.068C266.712 203.589 267.152 204.012 267.705 204.338C268.258 204.663 268.942 204.826 269.756 204.826C270.342 204.826 271.009 204.631 271.758 204.24C272.539 203.85 273.271 203.247 273.955 202.434C274.671 201.62 275.306 200.594 275.859 199.357C276.445 198.12 276.852 196.656 277.08 194.963C277.145 194.507 277.357 194.133 277.715 193.84C278.073 193.514 278.496 193.352 278.984 193.352C279.44 193.352 279.831 193.531 280.156 193.889C280.514 194.247 280.71 194.654 280.742 195.109C280.775 195.728 280.84 196.607 280.938 197.746C281.035 198.853 281.247 199.96 281.572 201.066C281.93 202.173 282.451 203.133 283.135 203.947C283.818 204.761 284.762 205.168 285.967 205.168C286.748 205.168 287.513 204.956 288.262 204.533C289.043 204.11 289.792 203.557 290.508 202.873C291.257 202.157 291.956 201.359 292.607 200.48C293.291 199.569 293.91 198.658 294.463 197.746C295.016 196.835 295.505 195.956 295.928 195.109C296.351 194.263 296.709 193.531 297.002 192.912C297.165 192.554 297.393 192.277 297.686 192.082C298.011 191.887 298.353 191.789 298.711 191.789C299.264 191.789 299.704 192.001 300.029 192.424C300.387 192.814 300.566 193.238 300.566 193.693C300.566 193.921 300.518 194.149 300.42 194.377ZM307.891 203.605C308.411 202.531 309.014 201.359 309.697 200.09C310.381 198.788 311.113 197.486 311.895 196.184C312.676 194.849 313.49 193.531 314.336 192.229C315.215 190.926 316.126 189.689 317.07 188.518C318.014 187.378 318.958 186.564 319.902 186.076C320.879 185.555 321.79 185.295 322.637 185.295C324.329 185.295 325.583 185.913 326.396 187.15C327.21 188.387 327.617 189.917 327.617 191.74C327.617 192.163 327.585 192.684 327.52 193.303C327.487 193.889 327.438 194.523 327.373 195.207C327.34 195.891 327.292 196.59 327.227 197.307C327.194 197.99 327.178 198.641 327.178 199.26C327.178 200.041 327.21 200.79 327.275 201.506C327.373 202.222 327.536 202.857 327.764 203.41C327.992 203.931 328.317 204.354 328.74 204.68C329.163 204.973 329.717 205.119 330.4 205.119C331.637 205.119 332.842 204.647 334.014 203.703C335.186 202.727 336.26 201.587 337.236 200.285C338.245 198.951 339.108 197.6 339.824 196.232C340.573 194.865 341.126 193.758 341.484 192.912C341.647 192.554 341.875 192.277 342.168 192.082C342.493 191.887 342.835 191.789 343.193 191.789C343.747 191.789 344.186 192.001 344.512 192.424C344.87 192.814 345.049 193.238 345.049 193.693C345.049 193.921 345 194.149 344.902 194.377C344.772 194.637 344.512 195.174 344.121 195.988C343.73 196.802 343.21 197.746 342.559 198.82C341.94 199.862 341.208 200.985 340.361 202.189C339.515 203.361 338.571 204.436 337.529 205.412C336.52 206.389 335.413 207.202 334.209 207.854C333.037 208.505 331.8 208.83 330.498 208.83C329.033 208.83 327.845 208.553 326.934 208C326.022 207.414 325.306 206.665 324.785 205.754C324.264 204.81 323.906 203.785 323.711 202.678C323.548 201.538 323.467 200.399 323.467 199.26C323.467 198.771 323.483 198.218 323.516 197.6C323.581 196.981 323.646 196.33 323.711 195.646C323.809 194.963 323.874 194.279 323.906 193.596C323.971 192.912 324.004 192.261 324.004 191.643C324.004 190.601 323.841 189.901 323.516 189.543C323.19 189.152 322.897 188.957 322.637 188.957C322.116 188.957 321.514 189.266 320.83 189.885C320.179 190.471 319.479 191.252 318.73 192.229C318.014 193.205 317.266 194.312 316.484 195.549C315.736 196.753 315.02 197.958 314.336 199.162C313.685 200.367 313.066 201.522 312.48 202.629C311.927 203.703 311.488 204.598 311.162 205.314C310.511 206.682 309.86 207.593 309.209 208.049C308.558 208.537 307.891 208.781 307.207 208.781C306.263 208.781 305.498 208.505 304.912 207.951C304.359 207.365 304.082 206.551 304.082 205.51C304.082 205.282 304.115 204.842 304.18 204.191C304.245 203.508 304.326 202.71 304.424 201.799C304.521 200.855 304.619 199.846 304.717 198.771C304.814 197.697 304.912 196.639 305.01 195.598C305.107 194.523 305.189 193.531 305.254 192.619C305.319 191.708 305.352 190.943 305.352 190.324C305.352 189.51 305.319 188.729 305.254 187.98C305.189 187.232 305.059 186.776 304.863 186.613C304.57 186.711 304.049 187.329 303.301 188.469C302.552 189.576 301.592 191.545 300.42 194.377C300.257 194.735 300.013 195.012 299.688 195.207C299.362 195.402 299.02 195.5 298.662 195.5C298.109 195.5 297.669 195.321 297.344 194.963C297.018 194.572 296.855 194.133 296.855 193.645C296.855 193.417 296.904 193.173 297.002 192.912C298.467 189.429 299.834 186.874 301.104 185.246C302.406 183.586 303.691 182.756 304.961 182.756C305.71 182.756 306.344 182.951 306.865 183.342C307.386 183.7 307.793 184.188 308.086 184.807C308.411 185.425 308.639 186.109 308.77 186.857C308.932 187.606 309.014 188.371 309.014 189.152C309.014 189.738 308.965 190.65 308.867 191.887C308.802 193.124 308.704 194.458 308.574 195.891C308.444 197.29 308.314 198.69 308.184 200.09C308.086 201.49 307.988 202.661 307.891 203.605ZM360.527 193.791C362.122 201.311 364.434 205.07 367.461 205.07C368.633 205.07 369.756 204.647 370.83 203.801C371.904 202.922 372.897 201.864 373.809 200.627C374.753 199.357 375.583 198.023 376.299 196.623C377.015 195.223 377.601 194.003 378.057 192.961C378.382 192.18 378.952 191.789 379.766 191.789C380.286 191.789 380.726 191.984 381.084 192.375C381.442 192.766 381.621 193.189 381.621 193.645C381.621 193.905 381.572 194.133 381.475 194.328C381.247 194.882 380.905 195.63 380.449 196.574C380.026 197.486 379.489 198.479 378.838 199.553C378.219 200.594 377.52 201.669 376.738 202.775C375.957 203.882 375.094 204.875 374.15 205.754C373.206 206.633 372.197 207.365 371.123 207.951C370.081 208.505 368.975 208.781 367.803 208.781C365.622 208.781 363.75 208.033 362.188 206.535C360.625 205.005 359.274 202.499 358.135 199.016C356.572 202.336 354.993 204.745 353.398 206.242C351.803 207.74 350.078 208.488 348.223 208.488C347.246 208.488 346.302 208.326 345.391 208C344.479 207.707 343.682 207.202 342.998 206.486C342.314 205.77 341.761 204.859 341.338 203.752C340.915 202.613 340.703 201.229 340.703 199.602C340.703 197.355 341.094 195.288 341.875 193.4C342.656 191.512 343.665 189.901 344.902 188.566C346.139 187.199 347.507 186.141 349.004 185.393C350.534 184.644 352.048 184.27 353.545 184.27C354.033 184.27 354.456 184.449 354.814 184.807C355.173 185.132 355.352 185.555 355.352 186.076C355.352 186.532 355.205 186.939 354.912 187.297C354.619 187.655 354.229 187.867 353.74 187.932C352.764 188.062 351.722 188.371 350.615 188.859C349.508 189.348 348.483 190.064 347.539 191.008C346.628 191.919 345.863 193.091 345.244 194.523C344.658 195.956 344.365 197.665 344.365 199.65C344.365 201.278 344.691 202.548 345.342 203.459C346.025 204.37 347.002 204.826 348.271 204.826C348.792 204.826 349.346 204.696 349.932 204.436C350.518 204.143 351.136 203.589 351.787 202.775C352.471 201.962 353.203 200.806 353.984 199.309C354.798 197.811 355.693 195.842 356.67 193.4C356.117 190.536 355.612 187.232 355.156 183.488C354.701 179.745 354.473 175.562 354.473 170.939C354.473 168.921 354.538 166.822 354.668 164.641C354.798 162.427 355.01 160.279 355.303 158.195C355.596 156.079 355.986 154.077 356.475 152.189C356.963 150.301 357.549 148.641 358.232 147.209C358.949 145.777 359.779 144.654 360.723 143.84C361.667 142.993 362.741 142.57 363.945 142.57C365.02 142.57 365.931 142.863 366.68 143.449C367.428 144.035 368.031 144.849 368.486 145.891C368.975 146.932 369.333 148.186 369.561 149.65C369.788 151.115 369.902 152.727 369.902 154.484C369.902 158.26 369.577 162.036 368.926 165.812C368.275 169.589 367.461 173.202 366.484 176.652C365.54 180.103 364.531 183.293 363.457 186.223C362.383 189.152 361.406 191.675 360.527 193.791ZM366.24 154.436C366.24 153.622 366.208 152.743 366.143 151.799C366.11 150.855 365.996 149.976 365.801 149.162C365.638 148.316 365.41 147.616 365.117 147.062C364.824 146.509 364.434 146.232 363.945 146.232C363.132 146.232 362.367 146.949 361.65 148.381C360.967 149.813 360.365 151.701 359.844 154.045C359.323 156.356 358.9 158.993 358.574 161.955C358.281 164.885 358.135 167.847 358.135 170.842C358.135 173.706 358.249 176.571 358.477 179.436C358.704 182.3 358.965 184.855 359.258 187.102C360.202 184.595 361.097 182.023 361.943 179.387C362.79 176.717 363.522 173.999 364.141 171.232C364.792 168.465 365.296 165.682 365.654 162.883C366.045 160.051 366.24 157.235 366.24 154.436Z" fill="#F4F4EF"/>
</g>
<defs>
<filter id="filter0_d" x="20.8828" y="134.758" width="364.738" height="134.172" filterUnits="userSpaceOnUse" color-interpolation-filters="sRGB">
<feFlood flood-opacity="0" result="BackgroundImageFix"/>
<feColorMatrix in="SourceAlpha" type="matrix" values="0 0 0 0 0 0 0 0 0 0 0 0 0 0 0 0 0 0 127 0"/>
<feOffset dy="4"/>
<feGaussianBlur stdDeviation="2"/>
<feColorMatrix type="matrix" values="0 0 0 0 0 0 0 0 0 0 0 0 0 0 0 0 0 0 0.25 0"/>
<feBlend mode="normal" in2="BackgroundImageFix" result="effect1_dropShadow"/>
<feBlend mode="normal" in="SourceGraphic" in2="effect1_dropShadow" result="shape"/>
</filter>
</defs>
</svg>
