<svg width="73" height="37" viewBox="0 0 73 37" fill="none" xmlns="http://www.w3.org/2000/svg">
<line x1="67.8351" y1="20.9206" x2="64.5904" y2="16.2868" stroke="black"/>
<line x1="66.3954" y1="24.1489" x2="63.567" y2="19.2499" stroke="black"/>
<path d="M29 12.5C29 14.1415 28.6767 15.767 28.0485 17.2835C27.4203 18.8001 26.4996 20.1781 25.3388 21.3388C24.1781 22.4996 22.8001 23.4203 21.2835 24.0485C19.767 24.6767 18.1415 25 16.5 25C14.8585 25 13.233 24.6767 11.7165 24.0485C10.1999 23.4203 8.8219 22.4996 7.66116 21.3388C6.50043 20.1781 5.57969 18.8001 4.95151 17.2835C4.32332 15.767 4 14.1415 4 12.5H5.0417C5.0417 14.0047 5.33808 15.4947 5.91391 16.8849C6.48974 18.2751 7.33376 19.5382 8.39776 20.6022C9.46176 21.6662 10.7249 22.5103 12.1151 23.0861C13.5053 23.6619 14.9953 23.9583 16.5 23.9583C18.0047 23.9583 19.4947 23.6619 20.8849 23.0861C22.2751 22.5103 23.5382 21.6662 24.6022 20.6022C25.6662 19.5382 26.5103 18.2751 27.0861 16.8849C27.6619 15.4947 27.9583 14.0047 27.9583 12.5H29Z" fill="black"/>
<path d="M66 12.5C66 14.1415 65.6767 15.767 65.0485 17.2835C64.4203 18.8001 63.4996 20.1781 62.3388 21.3388C61.1781 22.4996 59.8001 23.4203 58.2835 24.0485C56.767 24.6767 55.1415 25 53.5 25C51.8585 25 50.233 24.6767 48.7165 24.0485C47.1999 23.4203 45.8219 22.4996 44.6612 21.3388C43.5004 20.1781 42.5797 18.8001 41.9515 17.2835C41.3233 15.767 41 14.1415 41 12.5H42.0417C42.0417 14.0047 42.3381 15.4947 42.9139 16.8849C43.4897 18.2751 44.3338 19.5382 45.3978 20.6022C46.4618 21.6662 47.7249 22.5103 49.1151 23.0861C50.5053 23.6619 51.9953 23.9583 53.5 23.9583C55.0047 23.9583 56.4947 23.6619 57.8849 23.0861C59.2751 22.5103 60.5382 21.6662 61.6022 20.6022C62.6662 19.5382 63.5103 18.2751 64.0861 16.8849C64.6619 15.4947 64.9583 14.0047 64.9583 12.5H66Z" fill="black"/>
<line x1="5.03189" y1="15.9699" x2="1.78725" y2="20.6037" stroke="black"/>
<line x1="5.8472" y1="17.8005" x2="3.01877" y2="22.6995" stroke="black"/>
<line x1="4.35355" y1="13.3536" x2="0.353554" y2="17.3536" stroke="black"/>
<line x1="69.6464" y1="17.3536" x2="65.6464" y2="13.3536" stroke="black"/>
<circle cx="66" cy="30" r="1" fill="black"/>
<circle cx="72" cy="32" r="1" fill="black"/>
<circle cx="69" cy="36" r="1" fill="black"/>
</svg>
