<svg width="412" height="350" viewBox="0 0 412 350" fill="none" xmlns="http://www.w3.org/2000/svg">
<rect width="413.943" height="350" fill="#FF4D00"/>
<g filter="url(#filter0_d)">
<path d="M108.669 153.73C108.571 154.186 108.36 154.544 108.034 154.805C107.709 155.065 107.351 155.195 106.96 155.195C106.374 155.195 105.902 155.016 105.544 154.658C105.186 154.268 105.007 153.828 105.007 153.34C105.007 152.852 105.056 152.38 105.153 151.924C105.251 151.436 105.3 150.964 105.3 150.508C105.3 148.132 104.567 145.999 103.103 144.111C101.638 142.223 99.5544 140.645 96.8525 139.375C94.1833 138.073 90.9281 137.08 87.0869 136.396C83.2458 135.713 78.9652 135.371 74.2451 135.371C70.6318 135.371 66.986 135.615 63.3076 136.104C59.6618 136.559 56.1462 137.243 52.7607 138.154C49.4079 139.033 46.2666 140.156 43.3369 141.523C40.4072 142.858 37.8519 144.421 35.6709 146.211C33.5225 147.969 31.8298 149.938 30.5928 152.119C29.3558 154.268 28.7373 156.628 28.7373 159.199C28.7373 161.185 29.1605 162.943 30.0068 164.473C30.8857 165.97 32.0739 167.288 33.5713 168.428C35.0687 169.535 36.8265 170.495 38.8447 171.309C40.8955 172.09 43.109 172.757 45.4854 173.311C47.8617 173.831 50.3356 174.271 52.9072 174.629C55.4788 174.954 58.0667 175.231 60.6709 175.459L68.1904 176.094C71.9339 176.419 75.2868 176.761 78.249 177.119C81.2113 177.477 83.8154 177.933 86.0615 178.486C89.805 179.43 92.5719 180.781 94.3623 182.539C96.1527 184.297 97.0479 186.641 97.0479 189.57C97.0479 192.402 96.2666 194.893 94.7041 197.041C93.1416 199.189 91.0094 200.996 88.3076 202.461C85.6058 203.926 82.4482 205.033 78.835 205.781C75.2217 206.53 71.348 206.904 67.2139 206.904C62.7217 206.904 58.7666 206.595 55.3486 205.977C51.9632 205.391 49.1149 204.74 46.8037 204.023C44.5251 203.275 42.7835 202.591 41.5791 201.973C40.3747 201.354 39.7236 201.012 39.626 200.947C39.04 200.622 38.7471 200.101 38.7471 199.385C38.7471 198.831 38.9424 198.392 39.333 198.066C39.7236 197.708 40.1468 197.529 40.6025 197.529C40.9606 197.529 41.2861 197.627 41.5791 197.822C41.6117 197.822 42.165 198.115 43.2393 198.701C44.346 199.255 45.9736 199.873 48.1221 200.557C50.3031 201.24 52.9886 201.859 56.1787 202.412C59.3688 202.965 63.0798 203.242 67.3115 203.242C71.5107 203.242 75.2217 202.9 78.4443 202.217C81.667 201.533 84.3688 200.589 86.5498 199.385C88.7633 198.148 90.4235 196.715 91.5303 195.088C92.6696 193.428 93.2393 191.637 93.2393 189.717C93.2393 188.577 93.0277 187.601 92.6045 186.787C92.2139 185.941 91.6605 185.225 90.9443 184.639C90.2282 184.02 89.3656 183.499 88.3564 183.076C87.3799 182.653 86.3057 182.295 85.1338 182.002C83.8968 181.676 82.5622 181.4 81.1299 181.172C79.7301 180.944 78.2816 180.749 76.7842 180.586C75.2868 180.423 73.7731 180.277 72.2432 180.146C70.7458 180.016 69.2646 179.886 67.7998 179.756L60.2803 179.121C54.3558 178.633 49.18 177.884 44.7529 176.875C40.3584 175.833 36.6963 174.515 33.7666 172.92C30.8369 171.292 28.6396 169.355 27.1748 167.109C25.71 164.863 24.9775 162.243 24.9775 159.248C24.9775 156.188 25.6611 153.389 27.0283 150.85C28.4281 148.278 30.3161 145.967 32.6924 143.916C35.1012 141.865 37.9007 140.091 41.0908 138.594C44.3135 137.064 47.7477 135.794 51.3936 134.785C55.0394 133.776 58.8154 133.027 62.7217 132.539C66.6279 132.018 70.4691 131.758 74.2451 131.758C78.9652 131.758 83.0667 132.051 86.5498 132.637C90.0654 133.19 93.0602 133.923 95.5342 134.834C98.0407 135.713 100.091 136.722 101.687 137.861C103.282 139.001 104.567 140.124 105.544 141.23C107.855 143.932 109.011 147.008 109.011 150.459C109.011 151.598 108.897 152.689 108.669 153.73ZM150.954 156.123C150.954 156.644 150.775 157.067 150.417 157.393C150.059 157.686 149.619 157.832 149.099 157.832H124.343V158.369C124.343 160.355 124.196 162.471 123.903 164.717C123.61 166.963 123.203 169.209 122.683 171.455C122.194 173.669 121.625 175.833 120.974 177.949C120.355 180.065 119.704 182.018 119.021 183.809C118.369 185.599 117.718 187.161 117.067 188.496C116.416 189.798 115.83 190.775 115.31 191.426C115.733 192.923 116.237 194.323 116.823 195.625C117.409 196.895 118.06 198.018 118.776 198.994C119.525 199.938 120.323 200.687 121.169 201.24C122.015 201.794 122.927 202.07 123.903 202.07C125.043 202.07 126.166 201.598 127.272 200.654C128.412 199.678 129.453 198.538 130.397 197.236C131.374 195.902 132.22 194.567 132.937 193.232C133.685 191.865 134.222 190.775 134.548 189.961C134.873 189.18 135.443 188.789 136.257 188.789C136.81 188.789 137.25 188.984 137.575 189.375C137.933 189.766 138.112 190.189 138.112 190.645C138.112 190.872 138.063 191.1 137.966 191.328C137.868 191.556 137.624 192.077 137.233 192.891C136.875 193.704 136.387 194.648 135.769 195.723C135.183 196.797 134.483 197.936 133.669 199.141C132.888 200.312 131.993 201.387 130.983 202.363C130.007 203.34 128.949 204.154 127.81 204.805C126.67 205.456 125.466 205.781 124.196 205.781C121.95 205.781 119.932 205.049 118.142 203.584C116.351 202.119 114.821 200.068 113.552 197.432C112.315 194.795 111.371 191.67 110.72 188.057C110.069 184.443 109.743 180.488 109.743 176.191C109.743 175.117 109.759 173.864 109.792 172.432C109.825 170.967 109.89 169.437 109.987 167.842C110.085 166.214 110.231 164.554 110.427 162.861C110.622 161.136 110.882 159.46 111.208 157.832H93.6787C93.1579 157.832 92.7184 157.686 92.3604 157.393C92.0023 157.067 91.8232 156.644 91.8232 156.123C91.8232 155.602 92.0023 155.195 92.3604 154.902C92.7184 154.577 93.1579 154.414 93.6787 154.414H112.038C112.364 153.242 112.738 152.168 113.161 151.191C113.617 150.215 114.121 149.368 114.675 148.652C115.261 147.936 115.896 147.383 116.579 146.992C117.295 146.569 118.076 146.357 118.923 146.357C119.737 146.357 120.437 146.569 121.022 146.992C121.641 147.383 122.162 147.936 122.585 148.652C123.008 149.368 123.334 150.215 123.562 151.191C123.822 152.168 124.017 153.242 124.147 154.414H149.099C149.619 154.414 150.059 154.577 150.417 154.902C150.775 155.195 150.954 155.602 150.954 156.123ZM114.187 186.543C115.163 184.395 116.042 182.083 116.823 179.609C117.637 177.103 118.321 174.58 118.874 172.041C119.46 169.502 119.899 167.012 120.192 164.57C120.518 162.129 120.681 159.883 120.681 157.832H114.919C114.463 159.85 114.089 162.357 113.796 165.352C113.535 168.314 113.405 171.927 113.405 176.191C113.405 178.568 113.47 180.57 113.601 182.197C113.731 183.792 113.926 185.241 114.187 186.543ZM118.728 150.02C118.435 150.02 118.011 150.345 117.458 150.996C116.905 151.615 116.351 152.754 115.798 154.414H120.485C120.323 153.047 120.078 151.973 119.753 151.191C119.46 150.41 119.118 150.02 118.728 150.02ZM114.968 190.059V190.107V190.059ZM172.487 191.377C172.357 191.637 172.08 192.191 171.657 193.037C171.267 193.851 170.746 194.795 170.095 195.869C169.476 196.943 168.744 198.066 167.897 199.238C167.051 200.41 166.107 201.484 165.065 202.461C164.024 203.438 162.901 204.251 161.696 204.902C160.492 205.521 159.222 205.83 157.888 205.83C156 205.83 154.405 205.228 153.103 204.023C151.833 202.819 150.905 201.305 150.319 199.482C149.213 201.338 147.894 202.819 146.364 203.926C144.834 205 143.304 205.537 141.774 205.537C140.57 205.537 139.479 205.326 138.503 204.902C137.526 204.447 136.696 203.828 136.013 203.047C135.329 202.233 134.792 201.289 134.401 200.215C134.043 199.141 133.864 197.969 133.864 196.699C133.864 194.16 134.287 191.93 135.134 190.01C136.013 188.057 137.119 186.429 138.454 185.127C139.789 183.825 141.254 182.848 142.849 182.197C144.476 181.546 146.039 181.221 147.536 181.221C148.545 181.221 149.473 181.367 150.319 181.66C151.166 181.921 151.882 182.214 152.468 182.539C153.086 182.865 153.558 183.174 153.884 183.467C154.209 183.727 154.388 183.874 154.421 183.906C154.779 184.329 154.958 184.769 154.958 185.225C154.958 185.713 154.779 186.152 154.421 186.543C154.063 186.901 153.64 187.08 153.151 187.08C152.631 187.08 152.191 186.901 151.833 186.543C151.768 186.478 151.621 186.364 151.394 186.201C151.166 186.006 150.856 185.811 150.466 185.615C150.075 185.42 149.603 185.257 149.05 185.127C148.529 184.964 147.927 184.883 147.243 184.883C146.234 184.883 145.16 185.111 144.021 185.566C142.881 186.022 141.84 186.738 140.896 187.715C139.951 188.659 139.154 189.863 138.503 191.328C137.884 192.76 137.575 194.469 137.575 196.455C137.575 197.074 137.64 197.708 137.771 198.359C137.901 198.978 138.129 199.548 138.454 200.068C138.78 200.589 139.219 201.012 139.772 201.338C140.326 201.663 141.009 201.826 141.823 201.826C142.409 201.826 143.076 201.631 143.825 201.24C144.606 200.85 145.339 200.247 146.022 199.434C146.739 198.62 147.373 197.594 147.927 196.357C148.513 195.12 148.92 193.656 149.147 191.963C149.213 191.507 149.424 191.133 149.782 190.84C150.14 190.514 150.563 190.352 151.052 190.352C151.507 190.352 151.898 190.531 152.224 190.889C152.582 191.247 152.777 191.654 152.81 192.109C152.842 192.728 152.907 193.607 153.005 194.746C153.103 195.853 153.314 196.96 153.64 198.066C153.998 199.173 154.519 200.133 155.202 200.947C155.886 201.761 156.83 202.168 158.034 202.168C158.815 202.168 159.58 201.956 160.329 201.533C161.11 201.11 161.859 200.557 162.575 199.873C163.324 199.157 164.024 198.359 164.675 197.48C165.358 196.569 165.977 195.658 166.53 194.746C167.084 193.835 167.572 192.956 167.995 192.109C168.418 191.263 168.776 190.531 169.069 189.912C169.232 189.554 169.46 189.277 169.753 189.082C170.078 188.887 170.42 188.789 170.778 188.789C171.332 188.789 171.771 189.001 172.097 189.424C172.455 189.814 172.634 190.238 172.634 190.693C172.634 190.921 172.585 191.149 172.487 191.377ZM186.794 209.785C192.914 201.81 197.162 195.186 199.538 189.912C199.701 189.554 199.912 189.294 200.173 189.131C200.466 188.936 200.791 188.838 201.149 188.838C201.703 188.838 202.159 189.033 202.517 189.424C202.875 189.782 203.054 190.205 203.054 190.693C203.054 190.921 203.005 191.149 202.907 191.377C201.475 194.632 199.44 198.262 196.804 202.266C194.167 206.27 190.83 210.794 186.794 215.84C186.794 217.891 186.81 219.941 186.843 221.992C186.875 224.043 186.892 226.289 186.892 228.73C186.892 231.172 186.826 233.581 186.696 235.957C186.599 238.366 186.403 240.645 186.11 242.793C185.817 244.974 185.41 246.976 184.89 248.799C184.401 250.654 183.75 252.249 182.937 253.584C182.155 254.951 181.195 256.009 180.056 256.758C178.949 257.539 177.631 257.93 176.101 257.93C173.92 257.93 172.243 257.1 171.071 255.439C169.899 253.779 169.313 251.419 169.313 248.359C169.313 246.732 169.46 244.958 169.753 243.037C170.078 241.149 170.534 239.196 171.12 237.178C171.706 235.16 172.406 233.109 173.22 231.025C174.066 228.975 174.994 226.973 176.003 225.02C177.012 223.066 178.103 221.195 179.274 219.404C180.479 217.614 181.748 215.986 183.083 214.521C183.116 212.243 183.132 209.98 183.132 207.734C183.164 205.488 183.213 203.421 183.278 201.533C182.302 202.77 181.13 203.747 179.763 204.463C178.428 205.179 177.093 205.537 175.759 205.537C174.619 205.537 173.578 205.326 172.634 204.902C171.722 204.447 170.941 203.828 170.29 203.047C169.639 202.233 169.134 201.289 168.776 200.215C168.418 199.141 168.239 197.969 168.239 196.699C168.239 194.16 168.662 191.93 169.509 190.01C170.388 188.057 171.494 186.429 172.829 185.127C174.164 183.825 175.629 182.848 177.224 182.197C178.851 181.546 180.414 181.221 181.911 181.221C182.92 181.221 183.848 181.351 184.694 181.611C185.541 181.872 186.257 182.165 186.843 182.49C187.461 182.816 187.933 183.125 188.259 183.418C188.584 183.711 188.763 183.874 188.796 183.906C189.154 184.297 189.333 184.736 189.333 185.225C189.333 185.713 189.154 186.152 188.796 186.543C188.438 186.901 188.015 187.08 187.526 187.08C187.071 187.08 186.631 186.901 186.208 186.543C186.078 186.445 185.899 186.315 185.671 186.152C185.476 185.957 185.199 185.762 184.841 185.566C184.515 185.371 184.108 185.208 183.62 185.078C183.164 184.948 182.611 184.883 181.96 184.883C180.983 184.883 179.909 185.111 178.737 185.566C177.565 185.99 176.475 186.673 175.466 187.617C174.457 188.561 173.61 189.782 172.927 191.279C172.243 192.744 171.901 194.518 171.901 196.602C171.901 198.164 172.243 199.434 172.927 200.41C173.61 201.354 174.668 201.826 176.101 201.826C176.784 201.826 177.5 201.631 178.249 201.24C179.03 200.85 179.779 200.247 180.495 199.434C181.211 198.62 181.83 197.594 182.351 196.357C182.904 195.12 183.295 193.656 183.522 191.963C183.588 191.507 183.799 191.133 184.157 190.84C184.515 190.514 184.938 190.352 185.427 190.352C185.98 190.352 186.403 190.547 186.696 190.938C187.022 191.328 187.185 191.768 187.185 192.256C187.185 192.288 187.168 192.793 187.136 193.77C187.103 194.714 187.071 195.983 187.038 197.578C187.006 199.173 186.957 201.029 186.892 203.145C186.859 205.228 186.826 207.441 186.794 209.785ZM183.083 220.479C181.553 222.594 180.17 224.889 178.933 227.363C177.696 229.87 176.638 232.393 175.759 234.932C174.88 237.471 174.196 239.928 173.708 242.305C173.252 244.714 173.024 246.862 173.024 248.75C173.024 249.954 173.122 250.915 173.317 251.631C173.545 252.347 173.806 252.9 174.099 253.291C174.424 253.682 174.766 253.942 175.124 254.072C175.515 254.202 175.873 254.268 176.198 254.268C177.207 254.268 178.086 253.861 178.835 253.047C179.584 252.233 180.218 251.143 180.739 249.775C181.26 248.441 181.683 246.895 182.009 245.137C182.334 243.379 182.578 241.556 182.741 239.668C182.904 237.812 183.018 235.957 183.083 234.102C183.148 232.246 183.181 230.537 183.181 228.975C183.181 227.575 183.181 226.175 183.181 224.775C183.181 223.376 183.148 221.943 183.083 220.479ZM205.446 199.629C206.13 200.573 207.009 201.338 208.083 201.924C209.157 202.477 210.476 202.754 212.038 202.754C213.633 202.754 215.082 202.38 216.384 201.631C217.686 200.85 218.874 199.84 219.948 198.604C221.022 197.367 221.983 195.983 222.829 194.453C223.675 192.923 224.44 191.393 225.124 189.863C225.287 189.505 225.515 189.245 225.808 189.082C226.101 188.887 226.426 188.789 226.784 188.789C227.338 188.789 227.777 188.984 228.103 189.375C228.461 189.766 228.64 190.189 228.64 190.645C228.64 190.807 228.623 190.954 228.591 191.084C228.558 191.182 228.509 191.296 228.444 191.426C226.198 196.374 223.741 200.101 221.071 202.607C218.435 205.114 215.44 206.4 212.087 206.465C209.938 206.465 208.083 206.042 206.521 205.195C204.958 204.382 203.672 203.324 202.663 202.021C201.654 200.687 200.905 199.189 200.417 197.529C199.929 195.869 199.685 194.209 199.685 192.549C199.685 190.889 199.88 189.359 200.271 187.959C200.694 186.559 201.28 185.339 202.028 184.297C202.81 183.255 203.721 182.441 204.763 181.855C205.837 181.27 207.009 180.977 208.278 180.977C209.027 180.977 209.759 181.139 210.476 181.465C211.224 181.758 211.892 182.197 212.478 182.783C213.063 183.337 213.535 184.02 213.894 184.834C214.252 185.648 214.431 186.576 214.431 187.617C214.431 188.952 214.203 190.205 213.747 191.377C213.291 192.549 212.657 193.639 211.843 194.648C211.062 195.658 210.118 196.585 209.011 197.432C207.904 198.278 206.716 199.01 205.446 199.629ZM203.981 196.455C204.991 196.032 205.902 195.495 206.716 194.844C207.562 194.193 208.278 193.477 208.864 192.695C209.45 191.914 209.906 191.1 210.231 190.254C210.557 189.375 210.72 188.496 210.72 187.617C210.72 186.641 210.476 185.908 209.987 185.42C209.499 184.899 208.929 184.639 208.278 184.639C207.399 184.639 206.651 184.883 206.032 185.371C205.414 185.859 204.909 186.494 204.519 187.275C204.128 188.057 203.835 188.936 203.64 189.912C203.477 190.856 203.396 191.8 203.396 192.744C203.396 193.33 203.444 193.949 203.542 194.6C203.672 195.251 203.819 195.869 203.981 196.455ZM229.03 200.85C229.551 199.743 230.153 198.555 230.837 197.285C231.521 195.983 232.253 194.665 233.034 193.33C233.815 191.963 234.646 190.612 235.524 189.277C236.403 187.943 237.315 186.689 238.259 185.518C239.203 184.378 240.147 183.564 241.091 183.076C242.067 182.555 242.979 182.295 243.825 182.295C244.672 182.295 245.404 182.474 246.022 182.832C246.674 183.158 247.194 183.613 247.585 184.199C248.008 184.785 248.317 185.469 248.513 186.25C248.741 187.031 248.854 187.878 248.854 188.789C248.854 189.538 248.773 190.547 248.61 191.816C248.48 193.053 248.415 194.355 248.415 195.723C248.415 196.504 248.448 197.285 248.513 198.066C248.61 198.815 248.757 199.499 248.952 200.117C249.18 200.703 249.506 201.191 249.929 201.582C250.352 201.94 250.905 202.119 251.589 202.119C252.37 202.119 253.151 201.908 253.933 201.484C254.714 201.029 255.479 200.443 256.228 199.727C256.976 198.978 257.692 198.164 258.376 197.285C259.06 196.374 259.678 195.479 260.231 194.6C260.785 193.688 261.273 192.826 261.696 192.012C262.119 191.165 262.461 190.465 262.722 189.912C263.047 189.163 263.617 188.789 264.431 188.789C264.984 188.789 265.424 188.984 265.749 189.375C266.075 189.766 266.237 190.189 266.237 190.645C266.237 190.905 266.188 191.149 266.091 191.377C265.961 191.637 265.7 192.174 265.31 192.988C264.951 193.802 264.447 194.746 263.796 195.82C263.177 196.895 262.445 198.018 261.599 199.189C260.752 200.361 259.808 201.452 258.767 202.461C257.757 203.438 256.651 204.251 255.446 204.902C254.274 205.521 253.037 205.83 251.735 205.83C250.238 205.83 249.034 205.521 248.122 204.902C247.211 204.251 246.494 203.438 245.974 202.461C245.485 201.484 245.144 200.394 244.948 199.189C244.785 197.985 244.704 196.813 244.704 195.674C244.704 195.088 244.72 194.469 244.753 193.818C244.818 193.135 244.883 192.467 244.948 191.816C245.013 191.165 245.062 190.563 245.095 190.01C245.16 189.424 245.192 188.936 245.192 188.545C245.192 187.536 245.046 186.852 244.753 186.494C244.493 186.136 244.183 185.957 243.825 185.957C243.304 185.957 242.702 186.266 242.019 186.885C241.368 187.471 240.668 188.252 239.919 189.229C239.203 190.205 238.47 191.312 237.722 192.549C237.006 193.753 236.306 194.958 235.622 196.162C234.938 197.367 234.32 198.522 233.767 199.629C233.213 200.703 232.757 201.598 232.399 202.314C231.716 203.682 231.016 204.593 230.3 205.049C229.616 205.537 228.998 205.781 228.444 205.781C227.435 205.781 226.654 205.391 226.101 204.609C225.58 203.796 225.319 202.819 225.319 201.68V198.604C225.319 192.451 225.319 186.592 225.319 181.025C225.352 175.426 225.433 170.234 225.563 165.449C225.726 160.632 225.97 156.286 226.296 152.412C226.654 148.506 227.175 145.186 227.858 142.451C228.542 139.684 229.405 137.552 230.446 136.055C231.521 134.557 232.855 133.809 234.45 133.809C235.817 133.809 236.973 134.183 237.917 134.932C238.861 135.68 239.626 136.706 240.212 138.008C240.798 139.277 241.221 140.775 241.481 142.5C241.742 144.193 241.872 145.983 241.872 147.871C241.872 151.712 241.514 155.488 240.798 159.199C240.114 162.878 239.187 166.475 238.015 169.99C236.843 173.506 235.476 176.94 233.913 180.293C232.351 183.613 230.707 186.852 228.981 190.01C228.981 190.596 228.981 191.296 228.981 192.109C228.981 192.923 228.981 193.737 228.981 194.551C228.981 195.365 228.981 196.13 228.981 196.846C228.981 197.562 228.981 198.132 228.981 198.555L229.03 200.85ZM229.03 182.832C230.397 179.837 231.634 176.924 232.741 174.092C233.881 171.227 234.841 168.379 235.622 165.547C236.436 162.715 237.071 159.85 237.526 156.953C237.982 154.023 238.21 150.98 238.21 147.822C238.21 147.301 238.177 146.471 238.112 145.332C238.08 144.193 237.933 143.037 237.673 141.865C237.445 140.693 237.071 139.668 236.55 138.789C236.062 137.91 235.362 137.471 234.45 137.471C233.734 137.471 233.116 137.959 232.595 138.936C232.074 139.88 231.618 141.182 231.228 142.842C230.837 144.469 230.511 146.374 230.251 148.555C229.991 150.736 229.779 153.047 229.616 155.488C229.453 157.93 229.323 160.436 229.226 163.008C229.16 165.579 229.112 168.086 229.079 170.527C229.047 172.936 229.03 175.199 229.03 177.314C229.03 179.43 229.03 181.27 229.03 182.832ZM300.515 191.377C300.384 191.637 300.108 192.191 299.685 193.037C299.294 193.851 298.773 194.795 298.122 195.869C297.504 196.943 296.771 198.066 295.925 199.238C295.078 200.41 294.134 201.484 293.093 202.461C292.051 203.438 290.928 204.251 289.724 204.902C288.519 205.521 287.25 205.83 285.915 205.83C284.027 205.83 282.432 205.228 281.13 204.023C279.86 202.819 278.933 201.305 278.347 199.482C277.24 201.338 275.922 202.819 274.392 203.926C272.862 205 271.332 205.537 269.802 205.537C268.597 205.537 267.507 205.326 266.53 204.902C265.554 204.447 264.724 203.828 264.04 203.047C263.356 202.233 262.819 201.289 262.429 200.215C262.071 199.141 261.892 197.969 261.892 196.699C261.892 194.16 262.315 191.93 263.161 190.01C264.04 188.057 265.147 186.429 266.481 185.127C267.816 183.825 269.281 182.848 270.876 182.197C272.504 181.546 274.066 181.221 275.563 181.221C276.573 181.221 277.5 181.367 278.347 181.66C279.193 181.921 279.909 182.214 280.495 182.539C281.114 182.865 281.586 183.174 281.911 183.467C282.237 183.727 282.416 183.874 282.448 183.906C282.806 184.329 282.985 184.769 282.985 185.225C282.985 185.713 282.806 186.152 282.448 186.543C282.09 186.901 281.667 187.08 281.179 187.08C280.658 187.08 280.218 186.901 279.86 186.543C279.795 186.478 279.649 186.364 279.421 186.201C279.193 186.006 278.884 185.811 278.493 185.615C278.103 185.42 277.631 185.257 277.077 185.127C276.556 184.964 275.954 184.883 275.271 184.883C274.261 184.883 273.187 185.111 272.048 185.566C270.909 186.022 269.867 186.738 268.923 187.715C267.979 188.659 267.181 189.863 266.53 191.328C265.912 192.76 265.603 194.469 265.603 196.455C265.603 197.074 265.668 197.708 265.798 198.359C265.928 198.978 266.156 199.548 266.481 200.068C266.807 200.589 267.246 201.012 267.8 201.338C268.353 201.663 269.037 201.826 269.851 201.826C270.437 201.826 271.104 201.631 271.853 201.24C272.634 200.85 273.366 200.247 274.05 199.434C274.766 198.62 275.401 197.594 275.954 196.357C276.54 195.12 276.947 193.656 277.175 191.963C277.24 191.507 277.451 191.133 277.81 190.84C278.168 190.514 278.591 190.352 279.079 190.352C279.535 190.352 279.925 190.531 280.251 190.889C280.609 191.247 280.804 191.654 280.837 192.109C280.869 192.728 280.935 193.607 281.032 194.746C281.13 195.853 281.341 196.96 281.667 198.066C282.025 199.173 282.546 200.133 283.229 200.947C283.913 201.761 284.857 202.168 286.062 202.168C286.843 202.168 287.608 201.956 288.356 201.533C289.138 201.11 289.886 200.557 290.603 199.873C291.351 199.157 292.051 198.359 292.702 197.48C293.386 196.569 294.004 195.658 294.558 194.746C295.111 193.835 295.599 192.956 296.022 192.109C296.446 191.263 296.804 190.531 297.097 189.912C297.259 189.554 297.487 189.277 297.78 189.082C298.106 188.887 298.448 188.789 298.806 188.789C299.359 188.789 299.799 189.001 300.124 189.424C300.482 189.814 300.661 190.238 300.661 190.693C300.661 190.921 300.612 191.149 300.515 191.377ZM307.985 200.605C308.506 199.531 309.108 198.359 309.792 197.09C310.476 195.788 311.208 194.486 311.989 193.184C312.771 191.849 313.584 190.531 314.431 189.229C315.31 187.926 316.221 186.689 317.165 185.518C318.109 184.378 319.053 183.564 319.997 183.076C320.974 182.555 321.885 182.295 322.731 182.295C324.424 182.295 325.677 182.913 326.491 184.15C327.305 185.387 327.712 186.917 327.712 188.74C327.712 189.163 327.679 189.684 327.614 190.303C327.582 190.889 327.533 191.523 327.468 192.207C327.435 192.891 327.386 193.59 327.321 194.307C327.289 194.99 327.272 195.641 327.272 196.26C327.272 197.041 327.305 197.79 327.37 198.506C327.468 199.222 327.631 199.857 327.858 200.41C328.086 200.931 328.412 201.354 328.835 201.68C329.258 201.973 329.812 202.119 330.495 202.119C331.732 202.119 332.937 201.647 334.108 200.703C335.28 199.727 336.354 198.587 337.331 197.285C338.34 195.951 339.203 194.6 339.919 193.232C340.668 191.865 341.221 190.758 341.579 189.912C341.742 189.554 341.97 189.277 342.263 189.082C342.588 188.887 342.93 188.789 343.288 188.789C343.841 188.789 344.281 189.001 344.606 189.424C344.965 189.814 345.144 190.238 345.144 190.693C345.144 190.921 345.095 191.149 344.997 191.377C344.867 191.637 344.606 192.174 344.216 192.988C343.825 193.802 343.304 194.746 342.653 195.82C342.035 196.862 341.302 197.985 340.456 199.189C339.61 200.361 338.666 201.436 337.624 202.412C336.615 203.389 335.508 204.202 334.304 204.854C333.132 205.505 331.895 205.83 330.593 205.83C329.128 205.83 327.94 205.553 327.028 205C326.117 204.414 325.401 203.665 324.88 202.754C324.359 201.81 324.001 200.785 323.806 199.678C323.643 198.538 323.562 197.399 323.562 196.26C323.562 195.771 323.578 195.218 323.61 194.6C323.675 193.981 323.741 193.33 323.806 192.646C323.903 191.963 323.968 191.279 324.001 190.596C324.066 189.912 324.099 189.261 324.099 188.643C324.099 187.601 323.936 186.901 323.61 186.543C323.285 186.152 322.992 185.957 322.731 185.957C322.211 185.957 321.608 186.266 320.925 186.885C320.274 187.471 319.574 188.252 318.825 189.229C318.109 190.205 317.36 191.312 316.579 192.549C315.83 193.753 315.114 194.958 314.431 196.162C313.78 197.367 313.161 198.522 312.575 199.629C312.022 200.703 311.582 201.598 311.257 202.314C310.606 203.682 309.955 204.593 309.304 205.049C308.653 205.537 307.985 205.781 307.302 205.781C306.358 205.781 305.593 205.505 305.007 204.951C304.453 204.365 304.177 203.551 304.177 202.51C304.177 202.282 304.209 201.842 304.274 201.191C304.34 200.508 304.421 199.71 304.519 198.799C304.616 197.855 304.714 196.846 304.812 195.771C304.909 194.697 305.007 193.639 305.104 192.598C305.202 191.523 305.284 190.531 305.349 189.619C305.414 188.708 305.446 187.943 305.446 187.324C305.446 186.51 305.414 185.729 305.349 184.98C305.284 184.232 305.153 183.776 304.958 183.613C304.665 183.711 304.144 184.329 303.396 185.469C302.647 186.576 301.687 188.545 300.515 191.377C300.352 191.735 300.108 192.012 299.782 192.207C299.457 192.402 299.115 192.5 298.757 192.5C298.203 192.5 297.764 192.321 297.438 191.963C297.113 191.572 296.95 191.133 296.95 190.645C296.95 190.417 296.999 190.173 297.097 189.912C298.562 186.429 299.929 183.874 301.198 182.246C302.5 180.586 303.786 179.756 305.056 179.756C305.804 179.756 306.439 179.951 306.96 180.342C307.481 180.7 307.888 181.188 308.181 181.807C308.506 182.425 308.734 183.109 308.864 183.857C309.027 184.606 309.108 185.371 309.108 186.152C309.108 186.738 309.06 187.65 308.962 188.887C308.897 190.124 308.799 191.458 308.669 192.891C308.539 194.29 308.409 195.69 308.278 197.09C308.181 198.49 308.083 199.661 307.985 200.605ZM360.622 190.791C362.217 198.311 364.528 202.07 367.556 202.07C368.728 202.07 369.851 201.647 370.925 200.801C371.999 199.922 372.992 198.864 373.903 197.627C374.847 196.357 375.677 195.023 376.394 193.623C377.11 192.223 377.696 191.003 378.151 189.961C378.477 189.18 379.047 188.789 379.86 188.789C380.381 188.789 380.821 188.984 381.179 189.375C381.537 189.766 381.716 190.189 381.716 190.645C381.716 190.905 381.667 191.133 381.569 191.328C381.341 191.882 381 192.63 380.544 193.574C380.121 194.486 379.584 195.479 378.933 196.553C378.314 197.594 377.614 198.669 376.833 199.775C376.052 200.882 375.189 201.875 374.245 202.754C373.301 203.633 372.292 204.365 371.218 204.951C370.176 205.505 369.069 205.781 367.897 205.781C365.716 205.781 363.845 205.033 362.282 203.535C360.72 202.005 359.369 199.499 358.229 196.016C356.667 199.336 355.088 201.745 353.493 203.242C351.898 204.74 350.173 205.488 348.317 205.488C347.341 205.488 346.397 205.326 345.485 205C344.574 204.707 343.776 204.202 343.093 203.486C342.409 202.77 341.856 201.859 341.433 200.752C341.009 199.613 340.798 198.229 340.798 196.602C340.798 194.355 341.188 192.288 341.97 190.4C342.751 188.512 343.76 186.901 344.997 185.566C346.234 184.199 347.601 183.141 349.099 182.393C350.629 181.644 352.142 181.27 353.64 181.27C354.128 181.27 354.551 181.449 354.909 181.807C355.267 182.132 355.446 182.555 355.446 183.076C355.446 183.532 355.3 183.939 355.007 184.297C354.714 184.655 354.323 184.867 353.835 184.932C352.858 185.062 351.817 185.371 350.71 185.859C349.603 186.348 348.578 187.064 347.634 188.008C346.722 188.919 345.957 190.091 345.339 191.523C344.753 192.956 344.46 194.665 344.46 196.65C344.46 198.278 344.785 199.548 345.437 200.459C346.12 201.37 347.097 201.826 348.366 201.826C348.887 201.826 349.44 201.696 350.026 201.436C350.612 201.143 351.231 200.589 351.882 199.775C352.565 198.962 353.298 197.806 354.079 196.309C354.893 194.811 355.788 192.842 356.765 190.4C356.211 187.536 355.707 184.232 355.251 180.488C354.795 176.745 354.567 172.562 354.567 167.939C354.567 165.921 354.632 163.822 354.763 161.641C354.893 159.427 355.104 157.279 355.397 155.195C355.69 153.079 356.081 151.077 356.569 149.189C357.058 147.301 357.644 145.641 358.327 144.209C359.043 142.777 359.873 141.654 360.817 140.84C361.761 139.993 362.836 139.57 364.04 139.57C365.114 139.57 366.026 139.863 366.774 140.449C367.523 141.035 368.125 141.849 368.581 142.891C369.069 143.932 369.427 145.186 369.655 146.65C369.883 148.115 369.997 149.727 369.997 151.484C369.997 155.26 369.672 159.036 369.021 162.812C368.369 166.589 367.556 170.202 366.579 173.652C365.635 177.103 364.626 180.293 363.552 183.223C362.478 186.152 361.501 188.675 360.622 190.791ZM366.335 151.436C366.335 150.622 366.302 149.743 366.237 148.799C366.205 147.855 366.091 146.976 365.896 146.162C365.733 145.316 365.505 144.616 365.212 144.062C364.919 143.509 364.528 143.232 364.04 143.232C363.226 143.232 362.461 143.949 361.745 145.381C361.062 146.813 360.459 148.701 359.938 151.045C359.418 153.356 358.994 155.993 358.669 158.955C358.376 161.885 358.229 164.847 358.229 167.842C358.229 170.706 358.343 173.571 358.571 176.436C358.799 179.3 359.06 181.855 359.353 184.102C360.297 181.595 361.192 179.023 362.038 176.387C362.884 173.717 363.617 170.999 364.235 168.232C364.886 165.465 365.391 162.682 365.749 159.883C366.14 157.051 366.335 154.235 366.335 151.436Z" fill="#F4F4EF"/>
</g>
<defs>
<filter id="filter0_d" x="20.9775" y="131.758" width="364.738" height="134.172" filterUnits="userSpaceOnUse" color-interpolation-filters="sRGB">
<feFlood flood-opacity="0" result="BackgroundImageFix"/>
<feColorMatrix in="SourceAlpha" type="matrix" values="0 0 0 0 0 0 0 0 0 0 0 0 0 0 0 0 0 0 127 0"/>
<feOffset dy="4"/>
<feGaussianBlur stdDeviation="2"/>
<feColorMatrix type="matrix" values="0 0 0 0 0 0 0 0 0 0 0 0 0 0 0 0 0 0 0.25 0"/>
<feBlend mode="normal" in2="BackgroundImageFix" result="effect1_dropShadow"/>
<feBlend mode="normal" in="SourceGraphic" in2="effect1_dropShadow" result="shape"/>
</filter>
</defs>
</svg>
