<svg width="413" height="350" viewBox="0 0 413 350" fill="none" xmlns="http://www.w3.org/2000/svg">
<rect width="413" height="350" fill="#E7A3F8"/>
<g filter="url(#filter0_d)">
<path d="M97.5742 156.73C97.4766 157.186 97.265 157.544 96.9395 157.805C96.6139 158.065 96.2559 158.195 95.8652 158.195C95.2793 158.195 94.8073 158.016 94.4492 157.658C94.0911 157.268 93.9121 156.828 93.9121 156.34C93.9121 155.852 93.9609 155.38 94.0586 154.924C94.1562 154.436 94.2051 153.964 94.2051 153.508C94.2051 151.132 93.4727 148.999 92.0078 147.111C90.543 145.223 88.4596 143.645 85.7578 142.375C83.0885 141.073 79.8333 140.08 75.9922 139.396C72.151 138.713 67.8704 138.371 63.1504 138.371C59.5371 138.371 55.8913 138.615 52.2129 139.104C48.5671 139.559 45.0514 140.243 41.666 141.154C38.3132 142.033 35.1719 143.156 32.2422 144.523C29.3125 145.858 26.7572 147.421 24.5762 149.211C22.4277 150.969 20.735 152.938 19.498 155.119C18.2611 157.268 17.6426 159.628 17.6426 162.199C17.6426 164.185 18.0658 165.943 18.9121 167.473C19.791 168.97 20.9792 170.288 22.4766 171.428C23.974 172.535 25.7318 173.495 27.75 174.309C29.8008 175.09 32.0143 175.757 34.3906 176.311C36.7669 176.831 39.2409 177.271 41.8125 177.629C44.3841 177.954 46.972 178.231 49.5762 178.459L57.0957 179.094C60.8392 179.419 64.1921 179.761 67.1543 180.119C70.1165 180.477 72.7207 180.933 74.9668 181.486C78.7103 182.43 81.4772 183.781 83.2676 185.539C85.0579 187.297 85.9531 189.641 85.9531 192.57C85.9531 195.402 85.1719 197.893 83.6094 200.041C82.0469 202.189 79.9147 203.996 77.2129 205.461C74.5111 206.926 71.3535 208.033 67.7402 208.781C64.127 209.53 60.2533 209.904 56.1191 209.904C51.627 209.904 47.6719 209.595 44.2539 208.977C40.8685 208.391 38.0202 207.74 35.709 207.023C33.4303 206.275 31.6888 205.591 30.4844 204.973C29.2799 204.354 28.6289 204.012 28.5312 203.947C27.9453 203.622 27.6523 203.101 27.6523 202.385C27.6523 201.831 27.8477 201.392 28.2383 201.066C28.6289 200.708 29.0521 200.529 29.5078 200.529C29.8659 200.529 30.1914 200.627 30.4844 200.822C30.5169 200.822 31.0703 201.115 32.1445 201.701C33.2513 202.255 34.8789 202.873 37.0273 203.557C39.2083 204.24 41.8939 204.859 45.084 205.412C48.2741 205.965 51.985 206.242 56.2168 206.242C60.416 206.242 64.127 205.9 67.3496 205.217C70.5723 204.533 73.2741 203.589 75.4551 202.385C77.6686 201.148 79.3288 199.715 80.4355 198.088C81.5749 196.428 82.1445 194.637 82.1445 192.717C82.1445 191.577 81.9329 190.601 81.5098 189.787C81.1191 188.941 80.5658 188.225 79.8496 187.639C79.1335 187.02 78.2708 186.499 77.2617 186.076C76.2852 185.653 75.2109 185.295 74.0391 185.002C72.8021 184.676 71.4674 184.4 70.0352 184.172C68.6354 183.944 67.1868 183.749 65.6895 183.586C64.1921 183.423 62.6784 183.277 61.1484 183.146C59.651 183.016 58.1699 182.886 56.7051 182.756L49.1855 182.121C43.2611 181.633 38.0853 180.884 33.6582 179.875C29.2637 178.833 25.6016 177.515 22.6719 175.92C19.7422 174.292 17.5449 172.355 16.0801 170.109C14.6152 167.863 13.8828 165.243 13.8828 162.248C13.8828 159.188 14.5664 156.389 15.9336 153.85C17.3333 151.278 19.2214 148.967 21.5977 146.916C24.0065 144.865 26.806 143.091 29.9961 141.594C33.2188 140.064 36.653 138.794 40.2988 137.785C43.9447 136.776 47.7207 136.027 51.627 135.539C55.5332 135.018 59.3743 134.758 63.1504 134.758C67.8704 134.758 71.972 135.051 75.4551 135.637C78.9707 136.19 81.9655 136.923 84.4395 137.834C86.946 138.713 88.9967 139.722 90.5918 140.861C92.1868 142.001 93.4727 143.124 94.4492 144.23C96.7604 146.932 97.916 150.008 97.916 153.459C97.916 154.598 97.8021 155.689 97.5742 156.73ZM139.859 159.123C139.859 159.644 139.68 160.067 139.322 160.393C138.964 160.686 138.525 160.832 138.004 160.832H113.248V161.369C113.248 163.355 113.102 165.471 112.809 167.717C112.516 169.963 112.109 172.209 111.588 174.455C111.1 176.669 110.53 178.833 109.879 180.949C109.26 183.065 108.609 185.018 107.926 186.809C107.275 188.599 106.624 190.161 105.973 191.496C105.322 192.798 104.736 193.775 104.215 194.426C104.638 195.923 105.143 197.323 105.729 198.625C106.314 199.895 106.965 201.018 107.682 201.994C108.43 202.938 109.228 203.687 110.074 204.24C110.921 204.794 111.832 205.07 112.809 205.07C113.948 205.07 115.071 204.598 116.178 203.654C117.317 202.678 118.359 201.538 119.303 200.236C120.279 198.902 121.126 197.567 121.842 196.232C122.59 194.865 123.128 193.775 123.453 192.961C123.779 192.18 124.348 191.789 125.162 191.789C125.715 191.789 126.155 191.984 126.48 192.375C126.839 192.766 127.018 193.189 127.018 193.645C127.018 193.872 126.969 194.1 126.871 194.328C126.773 194.556 126.529 195.077 126.139 195.891C125.781 196.704 125.292 197.648 124.674 198.723C124.088 199.797 123.388 200.936 122.574 202.141C121.793 203.312 120.898 204.387 119.889 205.363C118.912 206.34 117.854 207.154 116.715 207.805C115.576 208.456 114.371 208.781 113.102 208.781C110.855 208.781 108.837 208.049 107.047 206.584C105.257 205.119 103.727 203.068 102.457 200.432C101.22 197.795 100.276 194.67 99.625 191.057C98.974 187.443 98.6484 183.488 98.6484 179.191C98.6484 178.117 98.6647 176.864 98.6973 175.432C98.7298 173.967 98.7949 172.437 98.8926 170.842C98.9902 169.214 99.1367 167.554 99.332 165.861C99.5273 164.136 99.7878 162.46 100.113 160.832H82.584C82.0632 160.832 81.6237 160.686 81.2656 160.393C80.9076 160.067 80.7285 159.644 80.7285 159.123C80.7285 158.602 80.9076 158.195 81.2656 157.902C81.6237 157.577 82.0632 157.414 82.584 157.414H100.943C101.269 156.242 101.643 155.168 102.066 154.191C102.522 153.215 103.027 152.368 103.58 151.652C104.166 150.936 104.801 150.383 105.484 149.992C106.201 149.569 106.982 149.357 107.828 149.357C108.642 149.357 109.342 149.569 109.928 149.992C110.546 150.383 111.067 150.936 111.49 151.652C111.913 152.368 112.239 153.215 112.467 154.191C112.727 155.168 112.923 156.242 113.053 157.414H138.004C138.525 157.414 138.964 157.577 139.322 157.902C139.68 158.195 139.859 158.602 139.859 159.123ZM103.092 189.543C104.068 187.395 104.947 185.083 105.729 182.609C106.542 180.103 107.226 177.58 107.779 175.041C108.365 172.502 108.805 170.012 109.098 167.57C109.423 165.129 109.586 162.883 109.586 160.832H103.824C103.368 162.85 102.994 165.357 102.701 168.352C102.441 171.314 102.311 174.927 102.311 179.191C102.311 181.568 102.376 183.57 102.506 185.197C102.636 186.792 102.831 188.241 103.092 189.543ZM107.633 153.02C107.34 153.02 106.917 153.345 106.363 153.996C105.81 154.615 105.257 155.754 104.703 157.414H109.391C109.228 156.047 108.984 154.973 108.658 154.191C108.365 153.41 108.023 153.02 107.633 153.02ZM103.873 193.059V193.107V193.059ZM161.393 194.377C161.262 194.637 160.986 195.191 160.562 196.037C160.172 196.851 159.651 197.795 159 198.869C158.382 199.943 157.649 201.066 156.803 202.238C155.956 203.41 155.012 204.484 153.971 205.461C152.929 206.438 151.806 207.251 150.602 207.902C149.397 208.521 148.128 208.83 146.793 208.83C144.905 208.83 143.31 208.228 142.008 207.023C140.738 205.819 139.811 204.305 139.225 202.482C138.118 204.338 136.799 205.819 135.27 206.926C133.74 208 132.21 208.537 130.68 208.537C129.475 208.537 128.385 208.326 127.408 207.902C126.432 207.447 125.602 206.828 124.918 206.047C124.234 205.233 123.697 204.289 123.307 203.215C122.949 202.141 122.77 200.969 122.77 199.699C122.77 197.16 123.193 194.93 124.039 193.01C124.918 191.057 126.025 189.429 127.359 188.127C128.694 186.825 130.159 185.848 131.754 185.197C133.382 184.546 134.944 184.221 136.441 184.221C137.451 184.221 138.378 184.367 139.225 184.66C140.071 184.921 140.787 185.214 141.373 185.539C141.992 185.865 142.464 186.174 142.789 186.467C143.115 186.727 143.294 186.874 143.326 186.906C143.684 187.329 143.863 187.769 143.863 188.225C143.863 188.713 143.684 189.152 143.326 189.543C142.968 189.901 142.545 190.08 142.057 190.08C141.536 190.08 141.096 189.901 140.738 189.543C140.673 189.478 140.527 189.364 140.299 189.201C140.071 189.006 139.762 188.811 139.371 188.615C138.98 188.42 138.508 188.257 137.955 188.127C137.434 187.964 136.832 187.883 136.148 187.883C135.139 187.883 134.065 188.111 132.926 188.566C131.786 189.022 130.745 189.738 129.801 190.715C128.857 191.659 128.059 192.863 127.408 194.328C126.79 195.76 126.48 197.469 126.48 199.455C126.48 200.074 126.546 200.708 126.676 201.359C126.806 201.978 127.034 202.548 127.359 203.068C127.685 203.589 128.124 204.012 128.678 204.338C129.231 204.663 129.915 204.826 130.729 204.826C131.314 204.826 131.982 204.631 132.73 204.24C133.512 203.85 134.244 203.247 134.928 202.434C135.644 201.62 136.279 200.594 136.832 199.357C137.418 198.12 137.825 196.656 138.053 194.963C138.118 194.507 138.329 194.133 138.688 193.84C139.046 193.514 139.469 193.352 139.957 193.352C140.413 193.352 140.803 193.531 141.129 193.889C141.487 194.247 141.682 194.654 141.715 195.109C141.747 195.728 141.812 196.607 141.91 197.746C142.008 198.853 142.219 199.96 142.545 201.066C142.903 202.173 143.424 203.133 144.107 203.947C144.791 204.761 145.735 205.168 146.939 205.168C147.721 205.168 148.486 204.956 149.234 204.533C150.016 204.11 150.764 203.557 151.48 202.873C152.229 202.157 152.929 201.359 153.58 200.48C154.264 199.569 154.882 198.658 155.436 197.746C155.989 196.835 156.477 195.956 156.9 195.109C157.324 194.263 157.682 193.531 157.975 192.912C158.137 192.554 158.365 192.277 158.658 192.082C158.984 191.887 159.326 191.789 159.684 191.789C160.237 191.789 160.676 192.001 161.002 192.424C161.36 192.814 161.539 193.238 161.539 193.693C161.539 193.921 161.49 194.149 161.393 194.377ZM175.699 212.785C181.819 204.81 186.067 198.186 188.443 192.912C188.606 192.554 188.818 192.294 189.078 192.131C189.371 191.936 189.697 191.838 190.055 191.838C190.608 191.838 191.064 192.033 191.422 192.424C191.78 192.782 191.959 193.205 191.959 193.693C191.959 193.921 191.91 194.149 191.812 194.377C190.38 197.632 188.346 201.262 185.709 205.266C183.072 209.27 179.736 213.794 175.699 218.84C175.699 220.891 175.715 222.941 175.748 224.992C175.781 227.043 175.797 229.289 175.797 231.73C175.797 234.172 175.732 236.581 175.602 238.957C175.504 241.366 175.309 243.645 175.016 245.793C174.723 247.974 174.316 249.976 173.795 251.799C173.307 253.654 172.656 255.249 171.842 256.584C171.061 257.951 170.1 259.009 168.961 259.758C167.854 260.539 166.536 260.93 165.006 260.93C162.825 260.93 161.148 260.1 159.977 258.439C158.805 256.779 158.219 254.419 158.219 251.359C158.219 249.732 158.365 247.958 158.658 246.037C158.984 244.149 159.439 242.196 160.025 240.178C160.611 238.16 161.311 236.109 162.125 234.025C162.971 231.975 163.899 229.973 164.908 228.02C165.917 226.066 167.008 224.195 168.18 222.404C169.384 220.614 170.654 218.986 171.988 217.521C172.021 215.243 172.037 212.98 172.037 210.734C172.07 208.488 172.118 206.421 172.184 204.533C171.207 205.77 170.035 206.747 168.668 207.463C167.333 208.179 165.999 208.537 164.664 208.537C163.525 208.537 162.483 208.326 161.539 207.902C160.628 207.447 159.846 206.828 159.195 206.047C158.544 205.233 158.04 204.289 157.682 203.215C157.324 202.141 157.145 200.969 157.145 199.699C157.145 197.16 157.568 194.93 158.414 193.01C159.293 191.057 160.4 189.429 161.734 188.127C163.069 186.825 164.534 185.848 166.129 185.197C167.757 184.546 169.319 184.221 170.816 184.221C171.826 184.221 172.753 184.351 173.6 184.611C174.446 184.872 175.162 185.165 175.748 185.49C176.367 185.816 176.839 186.125 177.164 186.418C177.49 186.711 177.669 186.874 177.701 186.906C178.059 187.297 178.238 187.736 178.238 188.225C178.238 188.713 178.059 189.152 177.701 189.543C177.343 189.901 176.92 190.08 176.432 190.08C175.976 190.08 175.536 189.901 175.113 189.543C174.983 189.445 174.804 189.315 174.576 189.152C174.381 188.957 174.104 188.762 173.746 188.566C173.421 188.371 173.014 188.208 172.525 188.078C172.07 187.948 171.516 187.883 170.865 187.883C169.889 187.883 168.814 188.111 167.643 188.566C166.471 188.99 165.38 189.673 164.371 190.617C163.362 191.561 162.516 192.782 161.832 194.279C161.148 195.744 160.807 197.518 160.807 199.602C160.807 201.164 161.148 202.434 161.832 203.41C162.516 204.354 163.574 204.826 165.006 204.826C165.689 204.826 166.406 204.631 167.154 204.24C167.936 203.85 168.684 203.247 169.4 202.434C170.117 201.62 170.735 200.594 171.256 199.357C171.809 198.12 172.2 196.656 172.428 194.963C172.493 194.507 172.704 194.133 173.062 193.84C173.421 193.514 173.844 193.352 174.332 193.352C174.885 193.352 175.309 193.547 175.602 193.938C175.927 194.328 176.09 194.768 176.09 195.256C176.09 195.288 176.074 195.793 176.041 196.77C176.008 197.714 175.976 198.983 175.943 200.578C175.911 202.173 175.862 204.029 175.797 206.145C175.764 208.228 175.732 210.441 175.699 212.785ZM171.988 223.479C170.458 225.594 169.075 227.889 167.838 230.363C166.601 232.87 165.543 235.393 164.664 237.932C163.785 240.471 163.102 242.928 162.613 245.305C162.158 247.714 161.93 249.862 161.93 251.75C161.93 252.954 162.027 253.915 162.223 254.631C162.451 255.347 162.711 255.9 163.004 256.291C163.329 256.682 163.671 256.942 164.029 257.072C164.42 257.202 164.778 257.268 165.104 257.268C166.113 257.268 166.992 256.861 167.74 256.047C168.489 255.233 169.124 254.143 169.645 252.775C170.165 251.441 170.589 249.895 170.914 248.137C171.24 246.379 171.484 244.556 171.646 242.668C171.809 240.812 171.923 238.957 171.988 237.102C172.053 235.246 172.086 233.537 172.086 231.975C172.086 230.575 172.086 229.175 172.086 227.775C172.086 226.376 172.053 224.943 171.988 223.479ZM194.352 202.629C195.035 203.573 195.914 204.338 196.988 204.924C198.062 205.477 199.381 205.754 200.943 205.754C202.538 205.754 203.987 205.38 205.289 204.631C206.591 203.85 207.779 202.84 208.854 201.604C209.928 200.367 210.888 198.983 211.734 197.453C212.581 195.923 213.346 194.393 214.029 192.863C214.192 192.505 214.42 192.245 214.713 192.082C215.006 191.887 215.331 191.789 215.689 191.789C216.243 191.789 216.682 191.984 217.008 192.375C217.366 192.766 217.545 193.189 217.545 193.645C217.545 193.807 217.529 193.954 217.496 194.084C217.464 194.182 217.415 194.296 217.35 194.426C215.104 199.374 212.646 203.101 209.977 205.607C207.34 208.114 204.345 209.4 200.992 209.465C198.844 209.465 196.988 209.042 195.426 208.195C193.863 207.382 192.577 206.324 191.568 205.021C190.559 203.687 189.811 202.189 189.322 200.529C188.834 198.869 188.59 197.209 188.59 195.549C188.59 193.889 188.785 192.359 189.176 190.959C189.599 189.559 190.185 188.339 190.934 187.297C191.715 186.255 192.626 185.441 193.668 184.855C194.742 184.27 195.914 183.977 197.184 183.977C197.932 183.977 198.665 184.139 199.381 184.465C200.13 184.758 200.797 185.197 201.383 185.783C201.969 186.337 202.441 187.02 202.799 187.834C203.157 188.648 203.336 189.576 203.336 190.617C203.336 191.952 203.108 193.205 202.652 194.377C202.197 195.549 201.562 196.639 200.748 197.648C199.967 198.658 199.023 199.585 197.916 200.432C196.809 201.278 195.621 202.01 194.352 202.629ZM192.887 199.455C193.896 199.032 194.807 198.495 195.621 197.844C196.467 197.193 197.184 196.477 197.77 195.695C198.355 194.914 198.811 194.1 199.137 193.254C199.462 192.375 199.625 191.496 199.625 190.617C199.625 189.641 199.381 188.908 198.893 188.42C198.404 187.899 197.835 187.639 197.184 187.639C196.305 187.639 195.556 187.883 194.938 188.371C194.319 188.859 193.814 189.494 193.424 190.275C193.033 191.057 192.74 191.936 192.545 192.912C192.382 193.856 192.301 194.8 192.301 195.744C192.301 196.33 192.35 196.949 192.447 197.6C192.577 198.251 192.724 198.869 192.887 199.455ZM217.936 203.85C218.456 202.743 219.059 201.555 219.742 200.285C220.426 198.983 221.158 197.665 221.939 196.33C222.721 194.963 223.551 193.612 224.43 192.277C225.309 190.943 226.22 189.689 227.164 188.518C228.108 187.378 229.052 186.564 229.996 186.076C230.973 185.555 231.884 185.295 232.73 185.295C233.577 185.295 234.309 185.474 234.928 185.832C235.579 186.158 236.1 186.613 236.49 187.199C236.913 187.785 237.223 188.469 237.418 189.25C237.646 190.031 237.76 190.878 237.76 191.789C237.76 192.538 237.678 193.547 237.516 194.816C237.385 196.053 237.32 197.355 237.32 198.723C237.32 199.504 237.353 200.285 237.418 201.066C237.516 201.815 237.662 202.499 237.857 203.117C238.085 203.703 238.411 204.191 238.834 204.582C239.257 204.94 239.811 205.119 240.494 205.119C241.275 205.119 242.057 204.908 242.838 204.484C243.619 204.029 244.384 203.443 245.133 202.727C245.882 201.978 246.598 201.164 247.281 200.285C247.965 199.374 248.583 198.479 249.137 197.6C249.69 196.688 250.178 195.826 250.602 195.012C251.025 194.165 251.367 193.465 251.627 192.912C251.952 192.163 252.522 191.789 253.336 191.789C253.889 191.789 254.329 191.984 254.654 192.375C254.98 192.766 255.143 193.189 255.143 193.645C255.143 193.905 255.094 194.149 254.996 194.377C254.866 194.637 254.605 195.174 254.215 195.988C253.857 196.802 253.352 197.746 252.701 198.82C252.083 199.895 251.35 201.018 250.504 202.189C249.658 203.361 248.714 204.452 247.672 205.461C246.663 206.438 245.556 207.251 244.352 207.902C243.18 208.521 241.943 208.83 240.641 208.83C239.143 208.83 237.939 208.521 237.027 207.902C236.116 207.251 235.4 206.438 234.879 205.461C234.391 204.484 234.049 203.394 233.854 202.189C233.691 200.985 233.609 199.813 233.609 198.674C233.609 198.088 233.626 197.469 233.658 196.818C233.723 196.135 233.788 195.467 233.854 194.816C233.919 194.165 233.967 193.563 234 193.01C234.065 192.424 234.098 191.936 234.098 191.545C234.098 190.536 233.951 189.852 233.658 189.494C233.398 189.136 233.089 188.957 232.73 188.957C232.21 188.957 231.607 189.266 230.924 189.885C230.273 190.471 229.573 191.252 228.824 192.229C228.108 193.205 227.376 194.312 226.627 195.549C225.911 196.753 225.211 197.958 224.527 199.162C223.844 200.367 223.225 201.522 222.672 202.629C222.118 203.703 221.663 204.598 221.305 205.314C220.621 206.682 219.921 207.593 219.205 208.049C218.521 208.537 217.903 208.781 217.35 208.781C216.34 208.781 215.559 208.391 215.006 207.609C214.485 206.796 214.225 205.819 214.225 204.68V201.604C214.225 195.451 214.225 189.592 214.225 184.025C214.257 178.426 214.339 173.234 214.469 168.449C214.632 163.632 214.876 159.286 215.201 155.412C215.559 151.506 216.08 148.186 216.764 145.451C217.447 142.684 218.31 140.552 219.352 139.055C220.426 137.557 221.76 136.809 223.355 136.809C224.723 136.809 225.878 137.183 226.822 137.932C227.766 138.68 228.531 139.706 229.117 141.008C229.703 142.277 230.126 143.775 230.387 145.5C230.647 147.193 230.777 148.983 230.777 150.871C230.777 154.712 230.419 158.488 229.703 162.199C229.02 165.878 228.092 169.475 226.92 172.99C225.748 176.506 224.381 179.94 222.818 183.293C221.256 186.613 219.612 189.852 217.887 193.01C217.887 193.596 217.887 194.296 217.887 195.109C217.887 195.923 217.887 196.737 217.887 197.551C217.887 198.365 217.887 199.13 217.887 199.846C217.887 200.562 217.887 201.132 217.887 201.555L217.936 203.85ZM217.936 185.832C219.303 182.837 220.54 179.924 221.646 177.092C222.786 174.227 223.746 171.379 224.527 168.547C225.341 165.715 225.976 162.85 226.432 159.953C226.887 157.023 227.115 153.98 227.115 150.822C227.115 150.301 227.083 149.471 227.018 148.332C226.985 147.193 226.839 146.037 226.578 144.865C226.35 143.693 225.976 142.668 225.455 141.789C224.967 140.91 224.267 140.471 223.355 140.471C222.639 140.471 222.021 140.959 221.5 141.936C220.979 142.88 220.523 144.182 220.133 145.842C219.742 147.469 219.417 149.374 219.156 151.555C218.896 153.736 218.684 156.047 218.521 158.488C218.359 160.93 218.229 163.436 218.131 166.008C218.066 168.579 218.017 171.086 217.984 173.527C217.952 175.936 217.936 178.199 217.936 180.314C217.936 182.43 217.936 184.27 217.936 185.832ZM289.42 194.377C289.29 194.637 289.013 195.191 288.59 196.037C288.199 196.851 287.678 197.795 287.027 198.869C286.409 199.943 285.676 201.066 284.83 202.238C283.984 203.41 283.04 204.484 281.998 205.461C280.956 206.438 279.833 207.251 278.629 207.902C277.424 208.521 276.155 208.83 274.82 208.83C272.932 208.83 271.337 208.228 270.035 207.023C268.766 205.819 267.838 204.305 267.252 202.482C266.145 204.338 264.827 205.819 263.297 206.926C261.767 208 260.237 208.537 258.707 208.537C257.503 208.537 256.412 208.326 255.436 207.902C254.459 207.447 253.629 206.828 252.945 206.047C252.262 205.233 251.725 204.289 251.334 203.215C250.976 202.141 250.797 200.969 250.797 199.699C250.797 197.16 251.22 194.93 252.066 193.01C252.945 191.057 254.052 189.429 255.387 188.127C256.721 186.825 258.186 185.848 259.781 185.197C261.409 184.546 262.971 184.221 264.469 184.221C265.478 184.221 266.406 184.367 267.252 184.66C268.098 184.921 268.814 185.214 269.4 185.539C270.019 185.865 270.491 186.174 270.816 186.467C271.142 186.727 271.321 186.874 271.354 186.906C271.712 187.329 271.891 187.769 271.891 188.225C271.891 188.713 271.712 189.152 271.354 189.543C270.995 189.901 270.572 190.08 270.084 190.08C269.563 190.08 269.124 189.901 268.766 189.543C268.701 189.478 268.554 189.364 268.326 189.201C268.098 189.006 267.789 188.811 267.398 188.615C267.008 188.42 266.536 188.257 265.982 188.127C265.462 187.964 264.859 187.883 264.176 187.883C263.167 187.883 262.092 188.111 260.953 188.566C259.814 189.022 258.772 189.738 257.828 190.715C256.884 191.659 256.087 192.863 255.436 194.328C254.817 195.76 254.508 197.469 254.508 199.455C254.508 200.074 254.573 200.708 254.703 201.359C254.833 201.978 255.061 202.548 255.387 203.068C255.712 203.589 256.152 204.012 256.705 204.338C257.258 204.663 257.942 204.826 258.756 204.826C259.342 204.826 260.009 204.631 260.758 204.24C261.539 203.85 262.271 203.247 262.955 202.434C263.671 201.62 264.306 200.594 264.859 199.357C265.445 198.12 265.852 196.656 266.08 194.963C266.145 194.507 266.357 194.133 266.715 193.84C267.073 193.514 267.496 193.352 267.984 193.352C268.44 193.352 268.831 193.531 269.156 193.889C269.514 194.247 269.71 194.654 269.742 195.109C269.775 195.728 269.84 196.607 269.938 197.746C270.035 198.853 270.247 199.96 270.572 201.066C270.93 202.173 271.451 203.133 272.135 203.947C272.818 204.761 273.762 205.168 274.967 205.168C275.748 205.168 276.513 204.956 277.262 204.533C278.043 204.11 278.792 203.557 279.508 202.873C280.257 202.157 280.956 201.359 281.607 200.48C282.291 199.569 282.91 198.658 283.463 197.746C284.016 196.835 284.505 195.956 284.928 195.109C285.351 194.263 285.709 193.531 286.002 192.912C286.165 192.554 286.393 192.277 286.686 192.082C287.011 191.887 287.353 191.789 287.711 191.789C288.264 191.789 288.704 192.001 289.029 192.424C289.387 192.814 289.566 193.238 289.566 193.693C289.566 193.921 289.518 194.149 289.42 194.377ZM296.891 203.605C297.411 202.531 298.014 201.359 298.697 200.09C299.381 198.788 300.113 197.486 300.895 196.184C301.676 194.849 302.49 193.531 303.336 192.229C304.215 190.926 305.126 189.689 306.07 188.518C307.014 187.378 307.958 186.564 308.902 186.076C309.879 185.555 310.79 185.295 311.637 185.295C313.329 185.295 314.583 185.913 315.396 187.15C316.21 188.387 316.617 189.917 316.617 191.74C316.617 192.163 316.585 192.684 316.52 193.303C316.487 193.889 316.438 194.523 316.373 195.207C316.34 195.891 316.292 196.59 316.227 197.307C316.194 197.99 316.178 198.641 316.178 199.26C316.178 200.041 316.21 200.79 316.275 201.506C316.373 202.222 316.536 202.857 316.764 203.41C316.992 203.931 317.317 204.354 317.74 204.68C318.163 204.973 318.717 205.119 319.4 205.119C320.637 205.119 321.842 204.647 323.014 203.703C324.186 202.727 325.26 201.587 326.236 200.285C327.245 198.951 328.108 197.6 328.824 196.232C329.573 194.865 330.126 193.758 330.484 192.912C330.647 192.554 330.875 192.277 331.168 192.082C331.493 191.887 331.835 191.789 332.193 191.789C332.747 191.789 333.186 192.001 333.512 192.424C333.87 192.814 334.049 193.238 334.049 193.693C334.049 193.921 334 194.149 333.902 194.377C333.772 194.637 333.512 195.174 333.121 195.988C332.73 196.802 332.21 197.746 331.559 198.82C330.94 199.862 330.208 200.985 329.361 202.189C328.515 203.361 327.571 204.436 326.529 205.412C325.52 206.389 324.413 207.202 323.209 207.854C322.037 208.505 320.8 208.83 319.498 208.83C318.033 208.83 316.845 208.553 315.934 208C315.022 207.414 314.306 206.665 313.785 205.754C313.264 204.81 312.906 203.785 312.711 202.678C312.548 201.538 312.467 200.399 312.467 199.26C312.467 198.771 312.483 198.218 312.516 197.6C312.581 196.981 312.646 196.33 312.711 195.646C312.809 194.963 312.874 194.279 312.906 193.596C312.971 192.912 313.004 192.261 313.004 191.643C313.004 190.601 312.841 189.901 312.516 189.543C312.19 189.152 311.897 188.957 311.637 188.957C311.116 188.957 310.514 189.266 309.83 189.885C309.179 190.471 308.479 191.252 307.73 192.229C307.014 193.205 306.266 194.312 305.484 195.549C304.736 196.753 304.02 197.958 303.336 199.162C302.685 200.367 302.066 201.522 301.48 202.629C300.927 203.703 300.488 204.598 300.162 205.314C299.511 206.682 298.86 207.593 298.209 208.049C297.558 208.537 296.891 208.781 296.207 208.781C295.263 208.781 294.498 208.505 293.912 207.951C293.359 207.365 293.082 206.551 293.082 205.51C293.082 205.282 293.115 204.842 293.18 204.191C293.245 203.508 293.326 202.71 293.424 201.799C293.521 200.855 293.619 199.846 293.717 198.771C293.814 197.697 293.912 196.639 294.01 195.598C294.107 194.523 294.189 193.531 294.254 192.619C294.319 191.708 294.352 190.943 294.352 190.324C294.352 189.51 294.319 188.729 294.254 187.98C294.189 187.232 294.059 186.776 293.863 186.613C293.57 186.711 293.049 187.329 292.301 188.469C291.552 189.576 290.592 191.545 289.42 194.377C289.257 194.735 289.013 195.012 288.688 195.207C288.362 195.402 288.02 195.5 287.662 195.5C287.109 195.5 286.669 195.321 286.344 194.963C286.018 194.572 285.855 194.133 285.855 193.645C285.855 193.417 285.904 193.173 286.002 192.912C287.467 189.429 288.834 186.874 290.104 185.246C291.406 183.586 292.691 182.756 293.961 182.756C294.71 182.756 295.344 182.951 295.865 183.342C296.386 183.7 296.793 184.188 297.086 184.807C297.411 185.425 297.639 186.109 297.77 186.857C297.932 187.606 298.014 188.371 298.014 189.152C298.014 189.738 297.965 190.65 297.867 191.887C297.802 193.124 297.704 194.458 297.574 195.891C297.444 197.29 297.314 198.69 297.184 200.09C297.086 201.49 296.988 202.661 296.891 203.605ZM349.527 193.791C351.122 201.311 353.434 205.07 356.461 205.07C357.633 205.07 358.756 204.647 359.83 203.801C360.904 202.922 361.897 201.864 362.809 200.627C363.753 199.357 364.583 198.023 365.299 196.623C366.015 195.223 366.601 194.003 367.057 192.961C367.382 192.18 367.952 191.789 368.766 191.789C369.286 191.789 369.726 191.984 370.084 192.375C370.442 192.766 370.621 193.189 370.621 193.645C370.621 193.905 370.572 194.133 370.475 194.328C370.247 194.882 369.905 195.63 369.449 196.574C369.026 197.486 368.489 198.479 367.838 199.553C367.219 200.594 366.52 201.669 365.738 202.775C364.957 203.882 364.094 204.875 363.15 205.754C362.206 206.633 361.197 207.365 360.123 207.951C359.081 208.505 357.975 208.781 356.803 208.781C354.622 208.781 352.75 208.033 351.188 206.535C349.625 205.005 348.274 202.499 347.135 199.016C345.572 202.336 343.993 204.745 342.398 206.242C340.803 207.74 339.078 208.488 337.223 208.488C336.246 208.488 335.302 208.326 334.391 208C333.479 207.707 332.682 207.202 331.998 206.486C331.314 205.77 330.761 204.859 330.338 203.752C329.915 202.613 329.703 201.229 329.703 199.602C329.703 197.355 330.094 195.288 330.875 193.4C331.656 191.512 332.665 189.901 333.902 188.566C335.139 187.199 336.507 186.141 338.004 185.393C339.534 184.644 341.048 184.27 342.545 184.27C343.033 184.27 343.456 184.449 343.814 184.807C344.173 185.132 344.352 185.555 344.352 186.076C344.352 186.532 344.205 186.939 343.912 187.297C343.619 187.655 343.229 187.867 342.74 187.932C341.764 188.062 340.722 188.371 339.615 188.859C338.508 189.348 337.483 190.064 336.539 191.008C335.628 191.919 334.863 193.091 334.244 194.523C333.658 195.956 333.365 197.665 333.365 199.65C333.365 201.278 333.691 202.548 334.342 203.459C335.025 204.37 336.002 204.826 337.271 204.826C337.792 204.826 338.346 204.696 338.932 204.436C339.518 204.143 340.136 203.589 340.787 202.775C341.471 201.962 342.203 200.806 342.984 199.309C343.798 197.811 344.693 195.842 345.67 193.4C345.117 190.536 344.612 187.232 344.156 183.488C343.701 179.745 343.473 175.562 343.473 170.939C343.473 168.921 343.538 166.822 343.668 164.641C343.798 162.427 344.01 160.279 344.303 158.195C344.596 156.079 344.986 154.077 345.475 152.189C345.963 150.301 346.549 148.641 347.232 147.209C347.949 145.777 348.779 144.654 349.723 143.84C350.667 142.993 351.741 142.57 352.945 142.57C354.02 142.57 354.931 142.863 355.68 143.449C356.428 144.035 357.031 144.849 357.486 145.891C357.975 146.932 358.333 148.186 358.561 149.65C358.788 151.115 358.902 152.727 358.902 154.484C358.902 158.26 358.577 162.036 357.926 165.812C357.275 169.589 356.461 173.202 355.484 176.652C354.54 180.103 353.531 183.293 352.457 186.223C351.383 189.152 350.406 191.675 349.527 193.791ZM355.24 154.436C355.24 153.622 355.208 152.743 355.143 151.799C355.11 150.855 354.996 149.976 354.801 149.162C354.638 148.316 354.41 147.616 354.117 147.062C353.824 146.509 353.434 146.232 352.945 146.232C352.132 146.232 351.367 146.949 350.65 148.381C349.967 149.813 349.365 151.701 348.844 154.045C348.323 156.356 347.9 158.993 347.574 161.955C347.281 164.885 347.135 167.847 347.135 170.842C347.135 173.706 347.249 176.571 347.477 179.436C347.704 182.3 347.965 184.855 348.258 187.102C349.202 184.595 350.097 182.023 350.943 179.387C351.79 176.717 352.522 173.999 353.141 171.232C353.792 168.465 354.296 165.682 354.654 162.883C355.045 160.051 355.24 157.235 355.24 154.436Z" fill="#333333"/>
</g>
<defs>
<filter id="filter0_d" x="9.88281" y="134.758" width="364.738" height="134.172" filterUnits="userSpaceOnUse" color-interpolation-filters="sRGB">
<feFlood flood-opacity="0" result="BackgroundImageFix"/>
<feColorMatrix in="SourceAlpha" type="matrix" values="0 0 0 0 0 0 0 0 0 0 0 0 0 0 0 0 0 0 127 0"/>
<feOffset dy="4"/>
<feGaussianBlur stdDeviation="2"/>
<feColorMatrix type="matrix" values="0 0 0 0 0 0 0 0 0 0 0 0 0 0 0 0 0 0 0.25 0"/>
<feBlend mode="normal" in2="BackgroundImageFix" result="effect1_dropShadow"/>
<feBlend mode="normal" in="SourceGraphic" in2="effect1_dropShadow" result="shape"/>
</filter>
</defs>
</svg>
