<svg width="413" height="350" viewBox="0 0 413 350" fill="none" xmlns="http://www.w3.org/2000/svg">
<rect width="413" height="350" fill="white"/>
<g filter="url(#filter0_d)">
<path d="M97.5742 154.73C97.4766 155.186 97.265 155.544 96.9395 155.805C96.6139 156.065 96.2559 156.195 95.8652 156.195C95.2793 156.195 94.8073 156.016 94.4492 155.658C94.0911 155.268 93.9121 154.828 93.9121 154.34C93.9121 153.852 93.9609 153.38 94.0586 152.924C94.1562 152.436 94.2051 151.964 94.2051 151.508C94.2051 149.132 93.4727 146.999 92.0078 145.111C90.543 143.223 88.4596 141.645 85.7578 140.375C83.0885 139.073 79.8333 138.08 75.9922 137.396C72.151 136.713 67.8704 136.371 63.1504 136.371C59.5371 136.371 55.8913 136.615 52.2129 137.104C48.5671 137.559 45.0514 138.243 41.666 139.154C38.3132 140.033 35.1719 141.156 32.2422 142.523C29.3125 143.858 26.7572 145.421 24.5762 147.211C22.4277 148.969 20.735 150.938 19.498 153.119C18.2611 155.268 17.6426 157.628 17.6426 160.199C17.6426 162.185 18.0658 163.943 18.9121 165.473C19.791 166.97 20.9792 168.288 22.4766 169.428C23.974 170.535 25.7318 171.495 27.75 172.309C29.8008 173.09 32.0143 173.757 34.3906 174.311C36.7669 174.831 39.2409 175.271 41.8125 175.629C44.3841 175.954 46.972 176.231 49.5762 176.459L57.0957 177.094C60.8392 177.419 64.1921 177.761 67.1543 178.119C70.1165 178.477 72.7207 178.933 74.9668 179.486C78.7103 180.43 81.4772 181.781 83.2676 183.539C85.0579 185.297 85.9531 187.641 85.9531 190.57C85.9531 193.402 85.1719 195.893 83.6094 198.041C82.0469 200.189 79.9147 201.996 77.2129 203.461C74.5111 204.926 71.3535 206.033 67.7402 206.781C64.127 207.53 60.2533 207.904 56.1191 207.904C51.627 207.904 47.6719 207.595 44.2539 206.977C40.8685 206.391 38.0202 205.74 35.709 205.023C33.4303 204.275 31.6888 203.591 30.4844 202.973C29.2799 202.354 28.6289 202.012 28.5312 201.947C27.9453 201.622 27.6523 201.101 27.6523 200.385C27.6523 199.831 27.8477 199.392 28.2383 199.066C28.6289 198.708 29.0521 198.529 29.5078 198.529C29.8659 198.529 30.1914 198.627 30.4844 198.822C30.5169 198.822 31.0703 199.115 32.1445 199.701C33.2513 200.255 34.8789 200.873 37.0273 201.557C39.2083 202.24 41.8939 202.859 45.084 203.412C48.2741 203.965 51.985 204.242 56.2168 204.242C60.416 204.242 64.127 203.9 67.3496 203.217C70.5723 202.533 73.2741 201.589 75.4551 200.385C77.6686 199.148 79.3288 197.715 80.4355 196.088C81.5749 194.428 82.1445 192.637 82.1445 190.717C82.1445 189.577 81.9329 188.601 81.5098 187.787C81.1191 186.941 80.5658 186.225 79.8496 185.639C79.1335 185.02 78.2708 184.499 77.2617 184.076C76.2852 183.653 75.2109 183.295 74.0391 183.002C72.8021 182.676 71.4674 182.4 70.0352 182.172C68.6354 181.944 67.1868 181.749 65.6895 181.586C64.1921 181.423 62.6784 181.277 61.1484 181.146C59.651 181.016 58.1699 180.886 56.7051 180.756L49.1855 180.121C43.2611 179.633 38.0853 178.884 33.6582 177.875C29.2637 176.833 25.6016 175.515 22.6719 173.92C19.7422 172.292 17.5449 170.355 16.0801 168.109C14.6152 165.863 13.8828 163.243 13.8828 160.248C13.8828 157.188 14.5664 154.389 15.9336 151.85C17.3333 149.278 19.2214 146.967 21.5977 144.916C24.0065 142.865 26.806 141.091 29.9961 139.594C33.2188 138.064 36.653 136.794 40.2988 135.785C43.9447 134.776 47.7207 134.027 51.627 133.539C55.5332 133.018 59.3743 132.758 63.1504 132.758C67.8704 132.758 71.972 133.051 75.4551 133.637C78.9707 134.19 81.9655 134.923 84.4395 135.834C86.946 136.713 88.9967 137.722 90.5918 138.861C92.1868 140.001 93.4727 141.124 94.4492 142.23C96.7604 144.932 97.916 148.008 97.916 151.459C97.916 152.598 97.8021 153.689 97.5742 154.73ZM139.859 157.123C139.859 157.644 139.68 158.067 139.322 158.393C138.964 158.686 138.525 158.832 138.004 158.832H113.248V159.369C113.248 161.355 113.102 163.471 112.809 165.717C112.516 167.963 112.109 170.209 111.588 172.455C111.1 174.669 110.53 176.833 109.879 178.949C109.26 181.065 108.609 183.018 107.926 184.809C107.275 186.599 106.624 188.161 105.973 189.496C105.322 190.798 104.736 191.775 104.215 192.426C104.638 193.923 105.143 195.323 105.729 196.625C106.314 197.895 106.965 199.018 107.682 199.994C108.43 200.938 109.228 201.687 110.074 202.24C110.921 202.794 111.832 203.07 112.809 203.07C113.948 203.07 115.071 202.598 116.178 201.654C117.317 200.678 118.359 199.538 119.303 198.236C120.279 196.902 121.126 195.567 121.842 194.232C122.59 192.865 123.128 191.775 123.453 190.961C123.779 190.18 124.348 189.789 125.162 189.789C125.715 189.789 126.155 189.984 126.48 190.375C126.839 190.766 127.018 191.189 127.018 191.645C127.018 191.872 126.969 192.1 126.871 192.328C126.773 192.556 126.529 193.077 126.139 193.891C125.781 194.704 125.292 195.648 124.674 196.723C124.088 197.797 123.388 198.936 122.574 200.141C121.793 201.312 120.898 202.387 119.889 203.363C118.912 204.34 117.854 205.154 116.715 205.805C115.576 206.456 114.371 206.781 113.102 206.781C110.855 206.781 108.837 206.049 107.047 204.584C105.257 203.119 103.727 201.068 102.457 198.432C101.22 195.795 100.276 192.67 99.625 189.057C98.974 185.443 98.6484 181.488 98.6484 177.191C98.6484 176.117 98.6647 174.864 98.6973 173.432C98.7298 171.967 98.7949 170.437 98.8926 168.842C98.9902 167.214 99.1367 165.554 99.332 163.861C99.5273 162.136 99.7878 160.46 100.113 158.832H82.584C82.0632 158.832 81.6237 158.686 81.2656 158.393C80.9076 158.067 80.7285 157.644 80.7285 157.123C80.7285 156.602 80.9076 156.195 81.2656 155.902C81.6237 155.577 82.0632 155.414 82.584 155.414H100.943C101.269 154.242 101.643 153.168 102.066 152.191C102.522 151.215 103.027 150.368 103.58 149.652C104.166 148.936 104.801 148.383 105.484 147.992C106.201 147.569 106.982 147.357 107.828 147.357C108.642 147.357 109.342 147.569 109.928 147.992C110.546 148.383 111.067 148.936 111.49 149.652C111.913 150.368 112.239 151.215 112.467 152.191C112.727 153.168 112.923 154.242 113.053 155.414H138.004C138.525 155.414 138.964 155.577 139.322 155.902C139.68 156.195 139.859 156.602 139.859 157.123ZM103.092 187.543C104.068 185.395 104.947 183.083 105.729 180.609C106.542 178.103 107.226 175.58 107.779 173.041C108.365 170.502 108.805 168.012 109.098 165.57C109.423 163.129 109.586 160.883 109.586 158.832H103.824C103.368 160.85 102.994 163.357 102.701 166.352C102.441 169.314 102.311 172.927 102.311 177.191C102.311 179.568 102.376 181.57 102.506 183.197C102.636 184.792 102.831 186.241 103.092 187.543ZM107.633 151.02C107.34 151.02 106.917 151.345 106.363 151.996C105.81 152.615 105.257 153.754 104.703 155.414H109.391C109.228 154.047 108.984 152.973 108.658 152.191C108.365 151.41 108.023 151.02 107.633 151.02ZM103.873 191.059V191.107V191.059ZM161.393 192.377C161.262 192.637 160.986 193.191 160.562 194.037C160.172 194.851 159.651 195.795 159 196.869C158.382 197.943 157.649 199.066 156.803 200.238C155.956 201.41 155.012 202.484 153.971 203.461C152.929 204.438 151.806 205.251 150.602 205.902C149.397 206.521 148.128 206.83 146.793 206.83C144.905 206.83 143.31 206.228 142.008 205.023C140.738 203.819 139.811 202.305 139.225 200.482C138.118 202.338 136.799 203.819 135.27 204.926C133.74 206 132.21 206.537 130.68 206.537C129.475 206.537 128.385 206.326 127.408 205.902C126.432 205.447 125.602 204.828 124.918 204.047C124.234 203.233 123.697 202.289 123.307 201.215C122.949 200.141 122.77 198.969 122.77 197.699C122.77 195.16 123.193 192.93 124.039 191.01C124.918 189.057 126.025 187.429 127.359 186.127C128.694 184.825 130.159 183.848 131.754 183.197C133.382 182.546 134.944 182.221 136.441 182.221C137.451 182.221 138.378 182.367 139.225 182.66C140.071 182.921 140.787 183.214 141.373 183.539C141.992 183.865 142.464 184.174 142.789 184.467C143.115 184.727 143.294 184.874 143.326 184.906C143.684 185.329 143.863 185.769 143.863 186.225C143.863 186.713 143.684 187.152 143.326 187.543C142.968 187.901 142.545 188.08 142.057 188.08C141.536 188.08 141.096 187.901 140.738 187.543C140.673 187.478 140.527 187.364 140.299 187.201C140.071 187.006 139.762 186.811 139.371 186.615C138.98 186.42 138.508 186.257 137.955 186.127C137.434 185.964 136.832 185.883 136.148 185.883C135.139 185.883 134.065 186.111 132.926 186.566C131.786 187.022 130.745 187.738 129.801 188.715C128.857 189.659 128.059 190.863 127.408 192.328C126.79 193.76 126.48 195.469 126.48 197.455C126.48 198.074 126.546 198.708 126.676 199.359C126.806 199.978 127.034 200.548 127.359 201.068C127.685 201.589 128.124 202.012 128.678 202.338C129.231 202.663 129.915 202.826 130.729 202.826C131.314 202.826 131.982 202.631 132.73 202.24C133.512 201.85 134.244 201.247 134.928 200.434C135.644 199.62 136.279 198.594 136.832 197.357C137.418 196.12 137.825 194.656 138.053 192.963C138.118 192.507 138.329 192.133 138.688 191.84C139.046 191.514 139.469 191.352 139.957 191.352C140.413 191.352 140.803 191.531 141.129 191.889C141.487 192.247 141.682 192.654 141.715 193.109C141.747 193.728 141.812 194.607 141.91 195.746C142.008 196.853 142.219 197.96 142.545 199.066C142.903 200.173 143.424 201.133 144.107 201.947C144.791 202.761 145.735 203.168 146.939 203.168C147.721 203.168 148.486 202.956 149.234 202.533C150.016 202.11 150.764 201.557 151.48 200.873C152.229 200.157 152.929 199.359 153.58 198.48C154.264 197.569 154.882 196.658 155.436 195.746C155.989 194.835 156.477 193.956 156.9 193.109C157.324 192.263 157.682 191.531 157.975 190.912C158.137 190.554 158.365 190.277 158.658 190.082C158.984 189.887 159.326 189.789 159.684 189.789C160.237 189.789 160.676 190.001 161.002 190.424C161.36 190.814 161.539 191.238 161.539 191.693C161.539 191.921 161.49 192.149 161.393 192.377ZM175.699 210.785C181.819 202.81 186.067 196.186 188.443 190.912C188.606 190.554 188.818 190.294 189.078 190.131C189.371 189.936 189.697 189.838 190.055 189.838C190.608 189.838 191.064 190.033 191.422 190.424C191.78 190.782 191.959 191.205 191.959 191.693C191.959 191.921 191.91 192.149 191.812 192.377C190.38 195.632 188.346 199.262 185.709 203.266C183.072 207.27 179.736 211.794 175.699 216.84C175.699 218.891 175.715 220.941 175.748 222.992C175.781 225.043 175.797 227.289 175.797 229.73C175.797 232.172 175.732 234.581 175.602 236.957C175.504 239.366 175.309 241.645 175.016 243.793C174.723 245.974 174.316 247.976 173.795 249.799C173.307 251.654 172.656 253.249 171.842 254.584C171.061 255.951 170.1 257.009 168.961 257.758C167.854 258.539 166.536 258.93 165.006 258.93C162.825 258.93 161.148 258.1 159.977 256.439C158.805 254.779 158.219 252.419 158.219 249.359C158.219 247.732 158.365 245.958 158.658 244.037C158.984 242.149 159.439 240.196 160.025 238.178C160.611 236.16 161.311 234.109 162.125 232.025C162.971 229.975 163.899 227.973 164.908 226.02C165.917 224.066 167.008 222.195 168.18 220.404C169.384 218.614 170.654 216.986 171.988 215.521C172.021 213.243 172.037 210.98 172.037 208.734C172.07 206.488 172.118 204.421 172.184 202.533C171.207 203.77 170.035 204.747 168.668 205.463C167.333 206.179 165.999 206.537 164.664 206.537C163.525 206.537 162.483 206.326 161.539 205.902C160.628 205.447 159.846 204.828 159.195 204.047C158.544 203.233 158.04 202.289 157.682 201.215C157.324 200.141 157.145 198.969 157.145 197.699C157.145 195.16 157.568 192.93 158.414 191.01C159.293 189.057 160.4 187.429 161.734 186.127C163.069 184.825 164.534 183.848 166.129 183.197C167.757 182.546 169.319 182.221 170.816 182.221C171.826 182.221 172.753 182.351 173.6 182.611C174.446 182.872 175.162 183.165 175.748 183.49C176.367 183.816 176.839 184.125 177.164 184.418C177.49 184.711 177.669 184.874 177.701 184.906C178.059 185.297 178.238 185.736 178.238 186.225C178.238 186.713 178.059 187.152 177.701 187.543C177.343 187.901 176.92 188.08 176.432 188.08C175.976 188.08 175.536 187.901 175.113 187.543C174.983 187.445 174.804 187.315 174.576 187.152C174.381 186.957 174.104 186.762 173.746 186.566C173.421 186.371 173.014 186.208 172.525 186.078C172.07 185.948 171.516 185.883 170.865 185.883C169.889 185.883 168.814 186.111 167.643 186.566C166.471 186.99 165.38 187.673 164.371 188.617C163.362 189.561 162.516 190.782 161.832 192.279C161.148 193.744 160.807 195.518 160.807 197.602C160.807 199.164 161.148 200.434 161.832 201.41C162.516 202.354 163.574 202.826 165.006 202.826C165.689 202.826 166.406 202.631 167.154 202.24C167.936 201.85 168.684 201.247 169.4 200.434C170.117 199.62 170.735 198.594 171.256 197.357C171.809 196.12 172.2 194.656 172.428 192.963C172.493 192.507 172.704 192.133 173.062 191.84C173.421 191.514 173.844 191.352 174.332 191.352C174.885 191.352 175.309 191.547 175.602 191.938C175.927 192.328 176.09 192.768 176.09 193.256C176.09 193.288 176.074 193.793 176.041 194.77C176.008 195.714 175.976 196.983 175.943 198.578C175.911 200.173 175.862 202.029 175.797 204.145C175.764 206.228 175.732 208.441 175.699 210.785ZM171.988 221.479C170.458 223.594 169.075 225.889 167.838 228.363C166.601 230.87 165.543 233.393 164.664 235.932C163.785 238.471 163.102 240.928 162.613 243.305C162.158 245.714 161.93 247.862 161.93 249.75C161.93 250.954 162.027 251.915 162.223 252.631C162.451 253.347 162.711 253.9 163.004 254.291C163.329 254.682 163.671 254.942 164.029 255.072C164.42 255.202 164.778 255.268 165.104 255.268C166.113 255.268 166.992 254.861 167.74 254.047C168.489 253.233 169.124 252.143 169.645 250.775C170.165 249.441 170.589 247.895 170.914 246.137C171.24 244.379 171.484 242.556 171.646 240.668C171.809 238.812 171.923 236.957 171.988 235.102C172.053 233.246 172.086 231.537 172.086 229.975C172.086 228.575 172.086 227.175 172.086 225.775C172.086 224.376 172.053 222.943 171.988 221.479ZM194.352 200.629C195.035 201.573 195.914 202.338 196.988 202.924C198.062 203.477 199.381 203.754 200.943 203.754C202.538 203.754 203.987 203.38 205.289 202.631C206.591 201.85 207.779 200.84 208.854 199.604C209.928 198.367 210.888 196.983 211.734 195.453C212.581 193.923 213.346 192.393 214.029 190.863C214.192 190.505 214.42 190.245 214.713 190.082C215.006 189.887 215.331 189.789 215.689 189.789C216.243 189.789 216.682 189.984 217.008 190.375C217.366 190.766 217.545 191.189 217.545 191.645C217.545 191.807 217.529 191.954 217.496 192.084C217.464 192.182 217.415 192.296 217.35 192.426C215.104 197.374 212.646 201.101 209.977 203.607C207.34 206.114 204.345 207.4 200.992 207.465C198.844 207.465 196.988 207.042 195.426 206.195C193.863 205.382 192.577 204.324 191.568 203.021C190.559 201.687 189.811 200.189 189.322 198.529C188.834 196.869 188.59 195.209 188.59 193.549C188.59 191.889 188.785 190.359 189.176 188.959C189.599 187.559 190.185 186.339 190.934 185.297C191.715 184.255 192.626 183.441 193.668 182.855C194.742 182.27 195.914 181.977 197.184 181.977C197.932 181.977 198.665 182.139 199.381 182.465C200.13 182.758 200.797 183.197 201.383 183.783C201.969 184.337 202.441 185.02 202.799 185.834C203.157 186.648 203.336 187.576 203.336 188.617C203.336 189.952 203.108 191.205 202.652 192.377C202.197 193.549 201.562 194.639 200.748 195.648C199.967 196.658 199.023 197.585 197.916 198.432C196.809 199.278 195.621 200.01 194.352 200.629ZM192.887 197.455C193.896 197.032 194.807 196.495 195.621 195.844C196.467 195.193 197.184 194.477 197.77 193.695C198.355 192.914 198.811 192.1 199.137 191.254C199.462 190.375 199.625 189.496 199.625 188.617C199.625 187.641 199.381 186.908 198.893 186.42C198.404 185.899 197.835 185.639 197.184 185.639C196.305 185.639 195.556 185.883 194.938 186.371C194.319 186.859 193.814 187.494 193.424 188.275C193.033 189.057 192.74 189.936 192.545 190.912C192.382 191.856 192.301 192.8 192.301 193.744C192.301 194.33 192.35 194.949 192.447 195.6C192.577 196.251 192.724 196.869 192.887 197.455ZM217.936 201.85C218.456 200.743 219.059 199.555 219.742 198.285C220.426 196.983 221.158 195.665 221.939 194.33C222.721 192.963 223.551 191.612 224.43 190.277C225.309 188.943 226.22 187.689 227.164 186.518C228.108 185.378 229.052 184.564 229.996 184.076C230.973 183.555 231.884 183.295 232.73 183.295C233.577 183.295 234.309 183.474 234.928 183.832C235.579 184.158 236.1 184.613 236.49 185.199C236.913 185.785 237.223 186.469 237.418 187.25C237.646 188.031 237.76 188.878 237.76 189.789C237.76 190.538 237.678 191.547 237.516 192.816C237.385 194.053 237.32 195.355 237.32 196.723C237.32 197.504 237.353 198.285 237.418 199.066C237.516 199.815 237.662 200.499 237.857 201.117C238.085 201.703 238.411 202.191 238.834 202.582C239.257 202.94 239.811 203.119 240.494 203.119C241.275 203.119 242.057 202.908 242.838 202.484C243.619 202.029 244.384 201.443 245.133 200.727C245.882 199.978 246.598 199.164 247.281 198.285C247.965 197.374 248.583 196.479 249.137 195.6C249.69 194.688 250.178 193.826 250.602 193.012C251.025 192.165 251.367 191.465 251.627 190.912C251.952 190.163 252.522 189.789 253.336 189.789C253.889 189.789 254.329 189.984 254.654 190.375C254.98 190.766 255.143 191.189 255.143 191.645C255.143 191.905 255.094 192.149 254.996 192.377C254.866 192.637 254.605 193.174 254.215 193.988C253.857 194.802 253.352 195.746 252.701 196.82C252.083 197.895 251.35 199.018 250.504 200.189C249.658 201.361 248.714 202.452 247.672 203.461C246.663 204.438 245.556 205.251 244.352 205.902C243.18 206.521 241.943 206.83 240.641 206.83C239.143 206.83 237.939 206.521 237.027 205.902C236.116 205.251 235.4 204.438 234.879 203.461C234.391 202.484 234.049 201.394 233.854 200.189C233.691 198.985 233.609 197.813 233.609 196.674C233.609 196.088 233.626 195.469 233.658 194.818C233.723 194.135 233.788 193.467 233.854 192.816C233.919 192.165 233.967 191.563 234 191.01C234.065 190.424 234.098 189.936 234.098 189.545C234.098 188.536 233.951 187.852 233.658 187.494C233.398 187.136 233.089 186.957 232.73 186.957C232.21 186.957 231.607 187.266 230.924 187.885C230.273 188.471 229.573 189.252 228.824 190.229C228.108 191.205 227.376 192.312 226.627 193.549C225.911 194.753 225.211 195.958 224.527 197.162C223.844 198.367 223.225 199.522 222.672 200.629C222.118 201.703 221.663 202.598 221.305 203.314C220.621 204.682 219.921 205.593 219.205 206.049C218.521 206.537 217.903 206.781 217.35 206.781C216.34 206.781 215.559 206.391 215.006 205.609C214.485 204.796 214.225 203.819 214.225 202.68V199.604C214.225 193.451 214.225 187.592 214.225 182.025C214.257 176.426 214.339 171.234 214.469 166.449C214.632 161.632 214.876 157.286 215.201 153.412C215.559 149.506 216.08 146.186 216.764 143.451C217.447 140.684 218.31 138.552 219.352 137.055C220.426 135.557 221.76 134.809 223.355 134.809C224.723 134.809 225.878 135.183 226.822 135.932C227.766 136.68 228.531 137.706 229.117 139.008C229.703 140.277 230.126 141.775 230.387 143.5C230.647 145.193 230.777 146.983 230.777 148.871C230.777 152.712 230.419 156.488 229.703 160.199C229.02 163.878 228.092 167.475 226.92 170.99C225.748 174.506 224.381 177.94 222.818 181.293C221.256 184.613 219.612 187.852 217.887 191.01C217.887 191.596 217.887 192.296 217.887 193.109C217.887 193.923 217.887 194.737 217.887 195.551C217.887 196.365 217.887 197.13 217.887 197.846C217.887 198.562 217.887 199.132 217.887 199.555L217.936 201.85ZM217.936 183.832C219.303 180.837 220.54 177.924 221.646 175.092C222.786 172.227 223.746 169.379 224.527 166.547C225.341 163.715 225.976 160.85 226.432 157.953C226.887 155.023 227.115 151.98 227.115 148.822C227.115 148.301 227.083 147.471 227.018 146.332C226.985 145.193 226.839 144.037 226.578 142.865C226.35 141.693 225.976 140.668 225.455 139.789C224.967 138.91 224.267 138.471 223.355 138.471C222.639 138.471 222.021 138.959 221.5 139.936C220.979 140.88 220.523 142.182 220.133 143.842C219.742 145.469 219.417 147.374 219.156 149.555C218.896 151.736 218.684 154.047 218.521 156.488C218.359 158.93 218.229 161.436 218.131 164.008C218.066 166.579 218.017 169.086 217.984 171.527C217.952 173.936 217.936 176.199 217.936 178.314C217.936 180.43 217.936 182.27 217.936 183.832ZM289.42 192.377C289.29 192.637 289.013 193.191 288.59 194.037C288.199 194.851 287.678 195.795 287.027 196.869C286.409 197.943 285.676 199.066 284.83 200.238C283.984 201.41 283.04 202.484 281.998 203.461C280.956 204.438 279.833 205.251 278.629 205.902C277.424 206.521 276.155 206.83 274.82 206.83C272.932 206.83 271.337 206.228 270.035 205.023C268.766 203.819 267.838 202.305 267.252 200.482C266.145 202.338 264.827 203.819 263.297 204.926C261.767 206 260.237 206.537 258.707 206.537C257.503 206.537 256.412 206.326 255.436 205.902C254.459 205.447 253.629 204.828 252.945 204.047C252.262 203.233 251.725 202.289 251.334 201.215C250.976 200.141 250.797 198.969 250.797 197.699C250.797 195.16 251.22 192.93 252.066 191.01C252.945 189.057 254.052 187.429 255.387 186.127C256.721 184.825 258.186 183.848 259.781 183.197C261.409 182.546 262.971 182.221 264.469 182.221C265.478 182.221 266.406 182.367 267.252 182.66C268.098 182.921 268.814 183.214 269.4 183.539C270.019 183.865 270.491 184.174 270.816 184.467C271.142 184.727 271.321 184.874 271.354 184.906C271.712 185.329 271.891 185.769 271.891 186.225C271.891 186.713 271.712 187.152 271.354 187.543C270.995 187.901 270.572 188.08 270.084 188.08C269.563 188.08 269.124 187.901 268.766 187.543C268.701 187.478 268.554 187.364 268.326 187.201C268.098 187.006 267.789 186.811 267.398 186.615C267.008 186.42 266.536 186.257 265.982 186.127C265.462 185.964 264.859 185.883 264.176 185.883C263.167 185.883 262.092 186.111 260.953 186.566C259.814 187.022 258.772 187.738 257.828 188.715C256.884 189.659 256.087 190.863 255.436 192.328C254.817 193.76 254.508 195.469 254.508 197.455C254.508 198.074 254.573 198.708 254.703 199.359C254.833 199.978 255.061 200.548 255.387 201.068C255.712 201.589 256.152 202.012 256.705 202.338C257.258 202.663 257.942 202.826 258.756 202.826C259.342 202.826 260.009 202.631 260.758 202.24C261.539 201.85 262.271 201.247 262.955 200.434C263.671 199.62 264.306 198.594 264.859 197.357C265.445 196.12 265.852 194.656 266.08 192.963C266.145 192.507 266.357 192.133 266.715 191.84C267.073 191.514 267.496 191.352 267.984 191.352C268.44 191.352 268.831 191.531 269.156 191.889C269.514 192.247 269.71 192.654 269.742 193.109C269.775 193.728 269.84 194.607 269.938 195.746C270.035 196.853 270.247 197.96 270.572 199.066C270.93 200.173 271.451 201.133 272.135 201.947C272.818 202.761 273.762 203.168 274.967 203.168C275.748 203.168 276.513 202.956 277.262 202.533C278.043 202.11 278.792 201.557 279.508 200.873C280.257 200.157 280.956 199.359 281.607 198.48C282.291 197.569 282.91 196.658 283.463 195.746C284.016 194.835 284.505 193.956 284.928 193.109C285.351 192.263 285.709 191.531 286.002 190.912C286.165 190.554 286.393 190.277 286.686 190.082C287.011 189.887 287.353 189.789 287.711 189.789C288.264 189.789 288.704 190.001 289.029 190.424C289.387 190.814 289.566 191.238 289.566 191.693C289.566 191.921 289.518 192.149 289.42 192.377ZM296.891 201.605C297.411 200.531 298.014 199.359 298.697 198.09C299.381 196.788 300.113 195.486 300.895 194.184C301.676 192.849 302.49 191.531 303.336 190.229C304.215 188.926 305.126 187.689 306.07 186.518C307.014 185.378 307.958 184.564 308.902 184.076C309.879 183.555 310.79 183.295 311.637 183.295C313.329 183.295 314.583 183.913 315.396 185.15C316.21 186.387 316.617 187.917 316.617 189.74C316.617 190.163 316.585 190.684 316.52 191.303C316.487 191.889 316.438 192.523 316.373 193.207C316.34 193.891 316.292 194.59 316.227 195.307C316.194 195.99 316.178 196.641 316.178 197.26C316.178 198.041 316.21 198.79 316.275 199.506C316.373 200.222 316.536 200.857 316.764 201.41C316.992 201.931 317.317 202.354 317.74 202.68C318.163 202.973 318.717 203.119 319.4 203.119C320.637 203.119 321.842 202.647 323.014 201.703C324.186 200.727 325.26 199.587 326.236 198.285C327.245 196.951 328.108 195.6 328.824 194.232C329.573 192.865 330.126 191.758 330.484 190.912C330.647 190.554 330.875 190.277 331.168 190.082C331.493 189.887 331.835 189.789 332.193 189.789C332.747 189.789 333.186 190.001 333.512 190.424C333.87 190.814 334.049 191.238 334.049 191.693C334.049 191.921 334 192.149 333.902 192.377C333.772 192.637 333.512 193.174 333.121 193.988C332.73 194.802 332.21 195.746 331.559 196.82C330.94 197.862 330.208 198.985 329.361 200.189C328.515 201.361 327.571 202.436 326.529 203.412C325.52 204.389 324.413 205.202 323.209 205.854C322.037 206.505 320.8 206.83 319.498 206.83C318.033 206.83 316.845 206.553 315.934 206C315.022 205.414 314.306 204.665 313.785 203.754C313.264 202.81 312.906 201.785 312.711 200.678C312.548 199.538 312.467 198.399 312.467 197.26C312.467 196.771 312.483 196.218 312.516 195.6C312.581 194.981 312.646 194.33 312.711 193.646C312.809 192.963 312.874 192.279 312.906 191.596C312.971 190.912 313.004 190.261 313.004 189.643C313.004 188.601 312.841 187.901 312.516 187.543C312.19 187.152 311.897 186.957 311.637 186.957C311.116 186.957 310.514 187.266 309.83 187.885C309.179 188.471 308.479 189.252 307.73 190.229C307.014 191.205 306.266 192.312 305.484 193.549C304.736 194.753 304.02 195.958 303.336 197.162C302.685 198.367 302.066 199.522 301.48 200.629C300.927 201.703 300.488 202.598 300.162 203.314C299.511 204.682 298.86 205.593 298.209 206.049C297.558 206.537 296.891 206.781 296.207 206.781C295.263 206.781 294.498 206.505 293.912 205.951C293.359 205.365 293.082 204.551 293.082 203.51C293.082 203.282 293.115 202.842 293.18 202.191C293.245 201.508 293.326 200.71 293.424 199.799C293.521 198.855 293.619 197.846 293.717 196.771C293.814 195.697 293.912 194.639 294.01 193.598C294.107 192.523 294.189 191.531 294.254 190.619C294.319 189.708 294.352 188.943 294.352 188.324C294.352 187.51 294.319 186.729 294.254 185.98C294.189 185.232 294.059 184.776 293.863 184.613C293.57 184.711 293.049 185.329 292.301 186.469C291.552 187.576 290.592 189.545 289.42 192.377C289.257 192.735 289.013 193.012 288.688 193.207C288.362 193.402 288.02 193.5 287.662 193.5C287.109 193.5 286.669 193.321 286.344 192.963C286.018 192.572 285.855 192.133 285.855 191.645C285.855 191.417 285.904 191.173 286.002 190.912C287.467 187.429 288.834 184.874 290.104 183.246C291.406 181.586 292.691 180.756 293.961 180.756C294.71 180.756 295.344 180.951 295.865 181.342C296.386 181.7 296.793 182.188 297.086 182.807C297.411 183.425 297.639 184.109 297.77 184.857C297.932 185.606 298.014 186.371 298.014 187.152C298.014 187.738 297.965 188.65 297.867 189.887C297.802 191.124 297.704 192.458 297.574 193.891C297.444 195.29 297.314 196.69 297.184 198.09C297.086 199.49 296.988 200.661 296.891 201.605ZM349.527 191.791C351.122 199.311 353.434 203.07 356.461 203.07C357.633 203.07 358.756 202.647 359.83 201.801C360.904 200.922 361.897 199.864 362.809 198.627C363.753 197.357 364.583 196.023 365.299 194.623C366.015 193.223 366.601 192.003 367.057 190.961C367.382 190.18 367.952 189.789 368.766 189.789C369.286 189.789 369.726 189.984 370.084 190.375C370.442 190.766 370.621 191.189 370.621 191.645C370.621 191.905 370.572 192.133 370.475 192.328C370.247 192.882 369.905 193.63 369.449 194.574C369.026 195.486 368.489 196.479 367.838 197.553C367.219 198.594 366.52 199.669 365.738 200.775C364.957 201.882 364.094 202.875 363.15 203.754C362.206 204.633 361.197 205.365 360.123 205.951C359.081 206.505 357.975 206.781 356.803 206.781C354.622 206.781 352.75 206.033 351.188 204.535C349.625 203.005 348.274 200.499 347.135 197.016C345.572 200.336 343.993 202.745 342.398 204.242C340.803 205.74 339.078 206.488 337.223 206.488C336.246 206.488 335.302 206.326 334.391 206C333.479 205.707 332.682 205.202 331.998 204.486C331.314 203.77 330.761 202.859 330.338 201.752C329.915 200.613 329.703 199.229 329.703 197.602C329.703 195.355 330.094 193.288 330.875 191.4C331.656 189.512 332.665 187.901 333.902 186.566C335.139 185.199 336.507 184.141 338.004 183.393C339.534 182.644 341.048 182.27 342.545 182.27C343.033 182.27 343.456 182.449 343.814 182.807C344.173 183.132 344.352 183.555 344.352 184.076C344.352 184.532 344.205 184.939 343.912 185.297C343.619 185.655 343.229 185.867 342.74 185.932C341.764 186.062 340.722 186.371 339.615 186.859C338.508 187.348 337.483 188.064 336.539 189.008C335.628 189.919 334.863 191.091 334.244 192.523C333.658 193.956 333.365 195.665 333.365 197.65C333.365 199.278 333.691 200.548 334.342 201.459C335.025 202.37 336.002 202.826 337.271 202.826C337.792 202.826 338.346 202.696 338.932 202.436C339.518 202.143 340.136 201.589 340.787 200.775C341.471 199.962 342.203 198.806 342.984 197.309C343.798 195.811 344.693 193.842 345.67 191.4C345.117 188.536 344.612 185.232 344.156 181.488C343.701 177.745 343.473 173.562 343.473 168.939C343.473 166.921 343.538 164.822 343.668 162.641C343.798 160.427 344.01 158.279 344.303 156.195C344.596 154.079 344.986 152.077 345.475 150.189C345.963 148.301 346.549 146.641 347.232 145.209C347.949 143.777 348.779 142.654 349.723 141.84C350.667 140.993 351.741 140.57 352.945 140.57C354.02 140.57 354.931 140.863 355.68 141.449C356.428 142.035 357.031 142.849 357.486 143.891C357.975 144.932 358.333 146.186 358.561 147.65C358.788 149.115 358.902 150.727 358.902 152.484C358.902 156.26 358.577 160.036 357.926 163.812C357.275 167.589 356.461 171.202 355.484 174.652C354.54 178.103 353.531 181.293 352.457 184.223C351.383 187.152 350.406 189.675 349.527 191.791ZM355.24 152.436C355.24 151.622 355.208 150.743 355.143 149.799C355.11 148.855 354.996 147.976 354.801 147.162C354.638 146.316 354.41 145.616 354.117 145.062C353.824 144.509 353.434 144.232 352.945 144.232C352.132 144.232 351.367 144.949 350.65 146.381C349.967 147.813 349.365 149.701 348.844 152.045C348.323 154.356 347.9 156.993 347.574 159.955C347.281 162.885 347.135 165.847 347.135 168.842C347.135 171.706 347.249 174.571 347.477 177.436C347.704 180.3 347.965 182.855 348.258 185.102C349.202 182.595 350.097 180.023 350.943 177.387C351.79 174.717 352.522 171.999 353.141 169.232C353.792 166.465 354.296 163.682 354.654 160.883C355.045 158.051 355.24 155.235 355.24 152.436Z" fill="#333333"/>
</g>
<defs>
<filter id="filter0_d" x="9.88281" y="132.758" width="364.738" height="134.172" filterUnits="userSpaceOnUse" color-interpolation-filters="sRGB">
<feFlood flood-opacity="0" result="BackgroundImageFix"/>
<feColorMatrix in="SourceAlpha" type="matrix" values="0 0 0 0 0 0 0 0 0 0 0 0 0 0 0 0 0 0 127 0"/>
<feOffset dy="4"/>
<feGaussianBlur stdDeviation="2"/>
<feColorMatrix type="matrix" values="0 0 0 0 0 0 0 0 0 0 0 0 0 0 0 0 0 0 0.25 0"/>
<feBlend mode="normal" in2="BackgroundImageFix" result="effect1_dropShadow"/>
<feBlend mode="normal" in="SourceGraphic" in2="effect1_dropShadow" result="shape"/>
</filter>
</defs>
</svg>
